<?xml version="1.0" encoding="UTF-8"?>
<svg width="48px" height="48px" viewBox="0 0 48 48" version="1.1" xmlns="http://www.w3.org/2000/svg" xmlns:xlink="http://www.w3.org/1999/xlink">
    <!-- Generator: Sketch 42 (36781) - http://www.bohemiancoding.com/sketch -->
    <title>icon-carro</title>
    <desc>Created with Sketch.</desc>
    <defs>
        <polygon id="path-1" points="0 30.9344 38.034 30.9344 38.034 0.0004 0 0.0004"></polygon>
    </defs>
    <g id="Symbols" stroke="none" stroke-width="1" fill="none" fill-rule="evenodd">
        <g id="icon-carro">
            <g id="Page-1" transform="translate(5.000000, 10.000000)">
                <mask id="mask-2" fill="white">
                    <use xlink:href="#path-1"></use>
                </mask>
                <g id="Clip-2"></g>
                <path d="M32.4716,20.6965 C30.2226,20.6965 28.3926,18.8675 28.3926,16.6175 C28.3926,14.3695 30.2226,12.5385 32.4716,12.5385 C34.7216,12.5385 36.5506,14.3695 36.5506,16.6175 C36.5506,18.8675 34.7216,20.6965 32.4716,20.6965 L32.4716,20.6965 Z M31.7296,28.7095 C31.7296,29.1195 31.3976,29.4515 30.9886,29.4515 L28.0466,29.4515 C27.6366,29.4515 27.3046,29.1195 27.3046,28.7095 L27.3046,26.6305 L31.7296,26.6305 L31.7296,28.7095 Z M10.7306,28.7095 C10.7306,29.1195 10.3976,29.4515 9.9886,29.4515 L7.0456,29.4515 C6.6376,29.4515 6.3046,29.1195 6.3046,28.7095 L6.3046,26.6305 L10.7306,26.6305 L10.7306,28.7095 Z M1.4836,16.6185 C1.4836,14.3695 3.3126,12.5395 5.5626,12.5395 C7.8116,12.5395 9.6416,14.3695 9.6416,16.6185 C9.6416,18.8685 7.8116,20.6975 5.5626,20.6975 C3.3126,20.6975 1.4836,18.8675 1.4836,16.6185 L1.4836,16.6185 Z M6.3046,25.1465 L6.3046,22.1255 C8.7776,21.7945 10.7376,19.8335 11.0696,17.3595 L11.0956,17.3595 L26.9646,17.3595 C27.2966,19.8335 29.2566,21.7945 31.7296,22.1255 L31.7296,25.1465 L6.3046,25.1465 Z M8.0716,2.8175 L8.0776,2.7255 C8.0776,2.0145 8.4696,1.4825 8.8196,1.4825 L29.2156,1.4825 C29.5656,1.4825 29.9566,2.0145 29.9566,2.7255 L31.0156,11.2555 C28.8866,11.8345 27.2636,13.6465 26.9646,15.8765 L11.0696,15.8765 C10.7706,13.6465 9.1496,11.8355 7.0206,11.2565 L8.0716,2.8175 Z M32.4806,11.0565 L31.4396,2.6775 C31.4196,1.1715 30.4496,-0.0005 29.2156,-0.0005 L8.8196,-0.0005 C7.5846,-0.0005 6.6156,1.1715 6.5946,2.6775 L5.5506,11.0565 C2.4886,11.0635 -0.0004,13.5545 -0.0004,16.6185 C-0.0004,19.4335 2.1036,21.7595 4.8206,22.1255 L4.8206,25.5475 L4.8206,26.6305 L4.8206,28.7095 C4.8206,29.9355 5.8196,30.9345 7.0456,30.9345 L9.9886,30.9345 C11.2156,30.9345 12.2136,29.9355 12.2136,28.7095 L12.2136,26.6305 L25.8216,26.6305 L25.8216,28.7095 C25.8216,29.9355 26.8196,30.9345 28.0466,30.9345 L30.9886,30.9345 C32.2156,30.9345 33.2136,29.9355 33.2136,28.7095 L33.2136,26.6305 L33.2136,25.4685 L33.2136,22.1255 C35.9306,21.7595 38.0346,19.4335 38.0346,16.6185 C38.0346,13.5535 35.5446,11.0605 32.4806,11.0565 Z" id="Fill-1" fill="#333333" mask="url(#mask-2)"></path>
            </g>
        </g>
    </g>
</svg>