<?xml version="1.0" encoding="UTF-8"?>
<svg width="48px" height="48px" viewBox="0 0 48 48" version="1.1" xmlns="http://www.w3.org/2000/svg" xmlns:xlink="http://www.w3.org/1999/xlink">
    <!-- Generator: Sketch 42 (36781) - http://www.bohemiancoding.com/sketch -->
    <title>icon-moto</title>
    <desc>Created with Sketch.</desc>
    <defs>
        <polygon id="path-1" points="24.5162 0.354 0.0002 0.354 0.0002 30.9996 24.5162 30.9996"></polygon>
    </defs>
    <g id="Symbols" stroke="none" stroke-width="1" fill="none" fill-rule="evenodd">
        <g id="icon-moto">
            <g id="Page-1" transform="translate(12.000000, 10.000000)">
                <path d="M12.208,5.0439 C13.108,5.0439 13.841,5.7759 13.841,6.6759 C13.841,7.5759 13.108,8.3089 12.208,8.3089 C11.309,8.3089 10.576,7.5759 10.576,6.6759 C10.576,5.7759 11.309,5.0439 12.208,5.0439 M12.208,9.6099 C13.825,9.6099 15.142,8.2939 15.142,6.6759 C15.142,5.0589 13.825,3.7429 12.208,3.7429 C10.591,3.7429 9.274,5.0589 9.274,6.6759 C9.274,8.2939 10.591,9.6099 12.208,9.6099" id="Fill-1" fill="#444A5A"></path>
                <g id="Group-5" transform="translate(0.000000, 0.646000)">
                    <mask id="mask-2" fill="white">
                        <use xlink:href="#path-1"></use>
                    </mask>
                    <g id="Clip-4"></g>
                    <path d="M19.2432,13.2656 L19.2432,25.8266 C19.2432,26.0406 19.0552,26.2296 18.8402,26.2296 L16.2262,26.2296 L16.2262,18.9936 C16.2262,16.8606 14.4912,15.1256 12.3582,15.1256 L12.0072,15.1256 C9.8742,15.1256 8.1392,16.8606 8.1392,18.9936 L8.1392,26.1796 L5.5252,26.1796 C5.3112,26.1796 5.1232,25.9916 5.1232,25.7766 L5.1232,13.2146 C5.1232,11.6076 6.4802,10.2496 8.0882,10.2496 L8.3952,10.2496 C9.4312,11.1446 10.7982,11.6566 12.1582,11.6566 C13.5072,11.6566 14.8042,11.1696 15.9162,10.2496 L16.2272,10.2496 C17.8902,10.2496 19.2432,11.6026 19.2432,13.2656 L19.2432,13.2656 Z M14.7222,27.1326 C14.7222,28.4566 13.6832,29.4946 12.3582,29.4946 L12.0072,29.4946 C10.6822,29.4946 9.6442,28.4566 9.6442,27.1326 L9.6442,18.9936 C9.6442,17.6686 10.6822,16.6306 12.0072,16.6306 L12.3582,16.6306 C13.6832,16.6306 14.7222,17.6686 14.7222,18.9936 L14.7222,27.1326 Z M12.2082,1.8586 C14.5092,1.8586 16.3802,3.7296 16.3802,6.0306 C16.3802,8.3696 14.5482,10.2026 12.2082,10.2026 C9.8692,10.2026 8.0372,8.3696 8.0372,6.0306 C8.0372,3.7296 9.9082,1.8586 12.2082,1.8586 L12.2082,1.8586 Z M23.6132,2.6656 L18.8902,2.6656 C18.6332,2.6656 18.3472,2.7316 18.1332,2.8386 L17.1392,3.2936 C16.1122,1.4736 14.2432,0.3536 12.2082,0.3536 C10.1572,0.3536 8.2882,1.4566 7.2742,3.2466 L6.2402,2.7916 C5.9982,2.6716 5.7552,2.6156 5.4752,2.6156 L0.7532,2.6156 C0.3092,2.6156 0.0002,2.9246 0.0002,3.3676 C0.0002,3.8036 0.3162,4.1196 0.7532,4.1196 L5.4752,4.1196 C5.4892,4.1196 5.5202,4.1196 5.5062,4.1026 L6.6852,4.6616 C6.5822,5.0776 6.5322,5.5276 6.5322,6.0306 C6.5322,6.9956 6.7952,7.9826 7.2772,8.8496 C5.1942,9.2346 3.6682,11.0686 3.6682,13.2656 L3.6682,25.8266 C3.6682,26.8606 4.5422,27.7346 5.5762,27.7346 L8.2662,27.7346 C8.5322,29.6116 10.1432,30.9996 12.1072,30.9996 L12.4592,30.9996 C14.3352,30.9996 15.9772,29.5826 16.2942,27.7346 L18.9912,27.7346 C20.0252,27.7346 20.8992,26.8606 20.8992,25.8266 L20.8992,13.2656 C20.8992,11.1196 19.3772,9.2896 17.2982,8.8596 C17.7812,8.0416 18.0352,7.0726 18.0352,6.0306 C18.0352,5.5696 17.9562,5.1166 17.8702,4.7116 L18.9762,4.1746 C18.9902,4.1706 19.0252,4.1706 19.0412,4.1706 L23.7642,4.1706 C24.2002,4.1706 24.5162,3.8536 24.5162,3.4176 C24.5162,2.9676 24.0502,2.6656 23.6132,2.6656 L23.6132,2.6656 Z" id="Fill-3" fill="#444A5A" mask="url(#mask-2)"></path>
                </g>
            </g>
        </g>
    </g>
</svg>