<?xml version="1.0" encoding="UTF-8"?>
<svg width="24px" height="24px" viewBox="0 0 24 24" version="1.1" xmlns="http://www.w3.org/2000/svg" xmlns:xlink="http://www.w3.org/1999/xlink">
    <!-- Generator: Sketch 42 (36781) - http://www.bohemiancoding.com/sketch -->
    <title>icon-assessorios-white</title>
    <desc>Created with Sketch.</desc>
    <defs>
        <polygon id="path-1" points="5.02675553e-20 0.0775146933 5.02675553e-20 4.59677419 7.17094 4.59677419 14.34188 4.59677419 14.34188 0.0775146933 0 0.0775146933"></polygon>
    </defs>
    <g id="Symbols" stroke="none" stroke-width="1" fill="none" fill-rule="evenodd">
        <g id="icon-assessorios-white">
            <g id="Page-1" transform="translate(3.000000, 2.000000)">
                <g id="Group-3" transform="translate(0.000000, 14.280645)">
                    <mask id="mask-2" fill="white">
                        <use xlink:href="#path-1"></use>
                    </mask>
                    <g id="Clip-2"></g>
                    <path d="M12.8582436,4.59677419 L1.45278909,4.59677419 C0.649152727,4.59677419 -0.000247272727,3.95322581 -0.000247272727,3.15645161 L-0.000247272727,1.53225806 C-0.000247272727,0.643548387 0.803698182,-0.0306451613 1.66915273,0.0919354839 L13.0746073,1.71612903 C13.7855164,1.80806452 14.34188,2.42096774 14.34188,3.15645161 C14.34188,3.95322581 13.66188,4.59677419 12.8582436,4.59677419" id="Fill-1" fill="#FFFFFF" mask="url(#mask-2)"></path>
                </g>
                <path d="M13.5072109,15.7515516 L12.5799382,15.5676806 C11.9308473,15.4451 11.5293382,14.8321968 11.5908473,14.1886484 L11.8999382,11.7983258 C12.1163018,10.1128419 12.4872109,8.42735806 13.0126655,6.80316452 L13.4144836,5.51606774 C13.5999382,4.90316452 14.21812,4.53542258 14.8672109,4.65800323 L15.8253927,4.84187419 C16.5053927,4.9951 16.9384291,5.63864839 16.7838836,6.31284194 L14.9908473,14.7709065 C14.8672109,15.4451 14.1872109,15.8741323 13.5072109,15.7515516" id="Fill-4" fill="#FFFFFF"></path>
                <path d="M15.3617564,4.32096774 L15.3617564,4.32096774 C14.5890291,4.32096774 13.9708473,3.70806452 13.9708473,2.94193548 L13.9708473,1.37903226 C13.9708473,0.612903226 14.5890291,0 15.3617564,0 L15.5163018,0 C16.3508473,0 16.9690291,0.70483871 16.8763018,1.5016129 L16.7526655,3.09516129 C16.6599382,3.8 16.0726655,4.32096774 15.3617564,4.32096774" id="Fill-6" fill="#FFFFFF"></path>
            </g>
        </g>
    </g>
</svg>