<?xml version="1.0" encoding="UTF-8"?>
<svg width="48px" height="48px" viewBox="0 0 48 48" version="1.1" xmlns="http://www.w3.org/2000/svg" xmlns:xlink="http://www.w3.org/1999/xlink">
    <!-- Generator: Sketch 42 (36781) - http://www.bohemiancoding.com/sketch -->
    <title>icon-caminhao</title>
    <desc>Created with Sketch.</desc>
    <defs>
        <polygon id="path-1" points="0 30.8417152 28.9034014 30.8417152 28.9034014 0 0 0"></polygon>
    </defs>
    <g id="Symbols" stroke="none" stroke-width="1" fill="none" fill-rule="evenodd">
        <g id="icon-caminhao">
            <g id="Page-1" transform="translate(10.000000, 10.000000)">
                <path d="M4.54162465,27.7234437 L4.54162465,29.1835232 C4.55857535,29.2167815 4.7160331,29.3362649 4.97294859,29.3362649 L8.34123732,29.3362649 C8.59815282,29.3362649 8.75540634,29.2167815 8.77480775,29.1693576 L8.77317394,27.7234437 L4.54162465,27.7234437 Z M8.34123732,30.773351 L4.97294859,30.773351 C3.92935704,30.773351 3.11204718,30.0751325 3.11204718,29.1835232 L3.11204718,26.2863576 L10.2021387,26.2863576 L10.2021387,29.1835232 C10.2021387,30.0751325 9.38462465,30.773351 8.34123732,30.773351 Z" id="Fill-1" fill="#444A5A"></path>
                <path d="M20.1309627,27.7918079 L20.1309627,29.2518874 C20.1481176,29.2851457 20.3053711,29.4046291 20.5622866,29.4046291 L23.9305754,29.4046291 C24.1874908,29.4046291 24.3447444,29.2851457 24.3641458,29.2377219 L24.362512,27.7918079 L20.1309627,27.7918079 Z M23.9305754,30.8417152 L20.5622866,30.8417152 C19.5186951,30.8417152 18.7013852,30.1434967 18.7013852,29.2518874 L18.7013852,26.3547219 L25.7914768,26.3547219 L25.7914768,29.2518874 C25.7914768,30.1434967 24.9739627,30.8417152 23.9305754,30.8417152 L23.9305754,30.8417152 Z" id="Fill-3" fill="#444A5A"></path>
                <path d="M22.4166324,18.6201603 C20.2924845,18.6201603 18.5643296,20.3573921 18.5643296,22.4926967 C18.5643296,24.6280013 20.2924845,26.3652331 22.4166324,26.3652331 C24.5407803,26.3652331 26.2689352,24.6280013 26.2689352,22.4926967 C26.2689352,20.3573921 24.5407803,18.6201603 22.4166324,18.6201603 M22.4166324,27.8023192 C19.5041746,27.8023192 17.1347521,25.4204517 17.1347521,22.4926967 C17.1347521,19.5649417 19.5041746,17.1830742 22.4166324,17.1830742 C25.3290901,17.1830742 27.6985127,19.5649417 27.6985127,22.4926967 C27.6985127,25.4204517 25.3290901,27.8023192 22.4166324,27.8023192" id="Fill-5" fill="#444A5A"></path>
                <path d="M6.48705493,18.6201603 C4.36290704,18.6201603 2.63475211,20.3573921 2.63475211,22.4926967 C2.63475211,24.6280013 4.36290704,26.3652331 6.48705493,26.3652331 C8.61120282,26.3652331 10.3393577,24.6280013 10.3393577,22.4926967 C10.3393577,20.3573921 8.61120282,18.6201603 6.48705493,18.6201603 M6.48705493,27.8023192 C3.57459718,27.8023192 1.20517465,25.4204517 1.20517465,22.4926967 C1.20517465,19.5649417 3.57459718,17.1830742 6.48705493,17.1830742 C9.39951268,17.1830742 11.7689352,19.5649417 11.7689352,22.4926967 C11.7689352,25.4204517 9.39951268,27.8023192 6.48705493,27.8023192" id="Fill-7" fill="#444A5A"></path>
                <path d="M2.69702042,1.43708609 C2.15745704,1.43708609 1.43225282,1.8189404 1.42959789,2.20962252 L1.42959789,20.9687285 C1.71837254,20.006702 2.27529507,19.1335695 3.04073169,18.4690199 L3.04073169,13.6716159 L3.07933028,13.6716159 L3.07933028,13.5272914 C3.06850634,13.4322384 3.0634007,13.3470397 3.0634007,13.2626623 L3.0634007,13.2343311 C3.04114014,13.1006821 3.03011197,12.9764768 3.03011197,12.8563775 L3.03011197,8.46382119 C3.03011197,7.22998013 3.96137958,6.22627815 5.10606268,6.22627815 L23.773281,6.22627815 C24.7333444,6.22627815 25.5622951,6.92839735 25.7891894,7.93374172 L25.8067528,8.01216556 L25.8067528,8.27925828 C25.8128796,8.30060927 25.8181894,8.32113907 25.8228866,8.34187417 L25.8400415,8.41947682 L25.8400415,13.7143179 L25.8239077,13.7855563 L25.8239077,18.4367881 C26.6097669,19.1054437 27.1803725,19.9896623 27.4736401,20.9670861 L27.4738444,2.19504636 C27.4742528,2.15747682 27.4758866,2.04353642 27.3182246,1.88299338 C27.0686613,1.62883444 26.5907739,1.43708609 26.2062176,1.43708609 L2.69702042,1.43708609 Z M2.04225352e-05,23.6913907 L2.04225352e-05,2.20469536 C0.00961901408,0.783417219 1.60073873,0 2.69702042,0 L26.2062176,0 C26.9671613,0 27.8230697,0.351059603 28.3358796,0.873748344 C28.7122669,1.25724503 28.9083232,1.71875497 28.9032176,2.20880132 L28.9032176,23.5875099 L26.1909007,23.5963377 L26.2542106,22.8168212 C26.2638092,22.6959007 26.2687106,22.5897616 26.2687106,22.4924503 C26.2687106,21.2620993 25.6774782,20.0929272 24.6871894,19.3649404 L24.3943303,19.1495828 L24.3943303,13.5915497 L24.4104641,13.5307815 L24.4104641,8.6073245 C24.4092387,8.60342384 24.4082176,8.59952318 24.4069923,8.59582781 L24.3771754,8.49523179 L24.3771754,8.18461589 C24.2830275,7.8744106 24.0422458,7.66336424 23.773281,7.66336424 L5.10606268,7.66336424 C4.74968944,7.66336424 4.45968944,8.02243046 4.45968944,8.46382119 L4.45968944,12.8563775 C4.45968944,12.9058543 4.46622465,12.962106 4.47990775,13.033755 L4.49297817,13.101298 L4.49297817,13.2626623 C4.49297817,13.2975629 4.49624577,13.3384172 4.50298521,13.3907682 L4.50890775,13.4835629 L4.50890775,15.108702 L4.47030915,15.108702 L4.47030915,19.1727815 L4.18337254,19.3883444 C3.19900634,20.1278278 2.63452746,21.2592252 2.63452746,22.4926556 C2.63452746,22.6260993 2.64147113,22.7611854 2.65495,22.8936026 L2.73521056,23.6827682 L2.04225352e-05,23.6913907 Z" id="Fill-9" fill="#444A5A"></path>
                <path d="M9.61903451,26.7659338 L19.2850204,26.7659338 C17.98145,25.7979536 17.1347317,24.2428212 17.1347317,22.4926556 C17.1347317,19.5649007 19.5041542,17.1830331 22.416612,17.1830331 C23.0983162,17.1830331 23.7620486,17.3123709 24.3812599,17.5626291 L24.3812599,15.5149868 L4.50380211,15.5149868 L4.50380211,17.5700199 C5.12811901,17.3150397 5.79797817,17.1832384 6.48703451,17.1832384 C9.39949225,17.1832384 11.7689148,19.565106 11.7689148,22.4928609 C11.7689148,24.2430265 10.9224007,25.7981589 9.61903451,26.7659338 L9.61903451,26.7659338 Z M25.8108373,28.2030199 L3.07422465,28.2030199 L3.07422465,24.778649 L4.21175986,25.6172914 C4.87569648,26.1067219 5.66257676,26.3653974 6.48703451,26.3653974 C8.61118239,26.3653974 10.3393373,24.6281656 10.3393373,22.4928609 C10.3393373,20.3575563 8.61118239,18.6203245 6.48703451,18.6203245 C5.66237254,18.6203245 4.87569648,18.879 4.21175986,19.3684305 L3.07422465,20.2070728 L3.07422465,14.0779007 L25.8108373,14.0779007 L25.8108373,20.1853113 L24.6761613,19.3573444 C24.0154923,18.8750993 23.2341261,18.6201192 22.416612,18.6201192 C20.2924641,18.6201192 18.5643092,20.357351 18.5643092,22.4926556 C18.5643092,24.6279603 20.2924641,26.3653974 22.4168162,26.3656026 C23.2341261,26.3656026 24.0154923,26.1108278 24.6761613,25.6285828 L25.8108373,24.8004106 L25.8108373,28.2030199 Z" id="Fill-11" fill="#444A5A"></path>
                <mask id="mask-2" fill="white">
                    <use xlink:href="#path-1"></use>
                </mask>
                <g id="Clip-14"></g>
                <polygon id="Fill-13" fill="#444A5A" mask="url(#mask-2)" points="12.818 25.8199205 16.0856056 25.8199205 16.0856056 24.3828344 12.818 24.3828344"></polygon>
                <polygon id="Fill-15" fill="#444A5A" mask="url(#mask-2)" points="12.818 23.7669404 16.0856056 23.7669404 16.0856056 22.3298543 12.818 22.3298543"></polygon>
                <polygon id="Fill-16" fill="#444A5A" mask="url(#mask-2)" points="12.818 21.7139603 16.0856056 21.7139603 16.0856056 20.2768742 12.818 20.2768742"></polygon>
            </g>
        </g>
    </g>
</svg>