<?xml version="1.0" encoding="UTF-8"?>
<svg width="24px" height="24px" viewBox="0 0 24 24" version="1.1" xmlns="http://www.w3.org/2000/svg" xmlns:xlink="http://www.w3.org/1999/xlink">
    <!-- Generator: Sketch 42 (36781) - http://www.bohemiancoding.com/sketch -->
    <title>icon-pneus</title>
    <desc>Created with Sketch.</desc>
    <defs>
        <polygon id="path-1" points="20 4.21052632e-05 20 20 0.000105263158 20 0.000105263158 4.21052632e-05 20 4.21052632e-05"></polygon>
    </defs>
    <g id="Symbols" stroke="none" stroke-width="1" fill="none" fill-rule="evenodd">
        <g id="icon-pneus">
            <g id="Page-1" transform="translate(2.000000, 2.000000)">
                <g id="Group-3">
                    <mask id="mask-2" fill="white">
                        <use xlink:href="#path-1"></use>
                    </mask>
                    <g id="Clip-2"></g>
                    <path d="M10.0001053,16.4000421 C6.46326316,16.4000421 3.60010526,13.5368842 3.60010526,10.0000421 C3.60010526,6.4632 6.46326316,3.60004211 10.0001053,3.60004211 C13.5369474,3.60004211 16.3998947,6.4632 16.3998947,10.0000421 C16.3998947,13.5368842 13.5369474,16.4000421 10.0001053,16.4000421 M10.0001053,4.21052632e-05 C4.48410526,4.21052632e-05 0.000105263158,4.48425263 0.000105263158,10.0000421 C0.000105263158,15.5158316 4.48410526,20.0000421 10.0001053,20.0000421 C15.5156842,20.0000421 20.0001053,15.5158316 20.0001053,10.0000421 C20.0001053,4.48425263 15.5156842,4.21052632e-05 10.0001053,4.21052632e-05" id="Fill-1" fill="#333333" mask="url(#mask-2)"></path>
                </g>
                <path d="M13.158,13.1158105 L11.7474737,11.1579158 C11.958,10.8421263 12.0841053,10.4631789 12.1053684,10.0421263 L14.3998947,9.30528421 C14.4422105,9.53686316 14.4630526,9.76844211 14.4630526,10.0000211 C14.4422105,11.2210737 13.9367368,12.3158105 13.158,13.1158105 M8.00010526,13.9579158 L9.41042105,12.0000211 C9.60010526,12.0631789 9.78957895,12.0842316 10.0001053,12.0842316 C10.2106316,12.0842316 10.3998947,12.0631789 10.5895789,12.0000211 L12.0001053,13.9579158 C11.3895789,14.2737053 10.7156842,14.4421263 10.0001053,14.4421263 C9.28431579,14.4421263 8.58957895,14.2526526 8.00010526,13.9579158 M5.55778947,10.0000211 C5.55778947,9.76844211 5.57905263,9.53686316 5.62115789,9.30528421 L7.91589474,10.0421263 C7.91589474,10.4631789 8.06326316,10.8421263 8.27378947,11.1579158 L6.86326316,13.1158105 C6.06305263,12.3158105 5.55778947,11.2210737 5.55778947,10.0000211 M9.28431579,5.62107368 L9.28431579,8.02107368 C8.90536842,8.14738947 8.58957895,8.37896842 8.35778947,8.69475789 L6.06305263,7.95791579 C6.69463158,6.73686316 7.87357895,5.85265263 9.28431579,5.62107368 M10.0001053,8.96844211 C10.5683158,8.96844211 11.0314737,9.4316 11.0314737,10.0000211 C11.0314737,10.5684421 10.5683158,11.0316 10.0001053,11.0316 C9.43168421,11.0316 8.96852632,10.5684421 8.96852632,10.0000211 C8.96852632,9.4316 9.43168421,8.96844211 10.0001053,8.96844211 M13.9367368,7.95791579 L11.6422105,8.69475789 C11.4104211,8.40002105 11.0737895,8.16844211 10.7156842,8.02107368 L10.7156842,5.62107368 C12.1264211,5.85265263 13.3051579,6.73686316 13.9367368,7.95791579 M10.0001053,4.54738947 C6.98936842,4.54738947 4.54747368,6.98949474 4.54747368,10.0000211 C4.54747368,13.0105474 6.98936842,15.4526526 10.0001053,15.4526526 C13.0106316,15.4526526 15.4525263,13.0105474 15.4525263,10.0000211 C15.4525263,6.98949474 13.0106316,4.54738947 10.0001053,4.54738947" id="Fill-4" fill="#333333"></path>
            </g>
        </g>
    </g>
</svg>