<?xml version="1.0" encoding="UTF-8"?>
<svg width="24px" height="24px" viewBox="0 0 24 24" version="1.1" xmlns="http://www.w3.org/2000/svg" xmlns:xlink="http://www.w3.org/1999/xlink">
    <!-- Generator: Sketch 42 (36781) - http://www.bohemiancoding.com/sketch -->
    <title>icon-pastilhas-white</title>
    <desc>Created with Sketch.</desc>
    <defs>
        <polygon id="path-1" points="0.138927835 0.0662888889 15.4300619 0.0662888889 15.4300619 18.7888467 0.138927835 18.7888467 0.138927835 0.0662888889"></polygon>
    </defs>
    <g id="Symbols" stroke="none" stroke-width="1" fill="none" fill-rule="evenodd">
        <g id="icon-pastilhas-white">
            <g id="Page-1" transform="translate(2.000000, 2.000000)">
                <path d="M13.4870515,9.99868667 C13.257567,9.99868667 13.0709691,9.80763111 13.0709691,9.57245333 C13.0709691,9.33706444 13.2573608,9.14622 13.4870515,9.14622 C13.7169485,9.14622 13.9035464,9.33685333 13.9035464,9.57245333 C13.9035464,9.80763111 13.7169485,9.99868667 13.4870515,9.99868667 M10.823134,10.8017533 C10.1602474,10.8017533 9.62272165,10.25202 9.62272165,9.57266444 C9.62272165,8.89288667 10.1602474,8.34336444 10.823134,8.34336444 C11.486433,8.34336444 12.0239588,8.89288667 12.0239588,9.57266444 C12.0239588,10.25202 11.486433,10.8017533 10.823134,10.8017533 M10.823134,12.7264533 C10.5932371,12.7264533 10.4070515,12.5353978 10.4070515,12.3000089 C10.4070515,12.06462 10.5930309,11.8737756 10.823134,11.8737756 C11.0532371,11.8737756 11.2396289,12.0644089 11.2396289,12.3000089 C11.2396289,12.5353978 11.0530309,12.7264533 10.823134,12.7264533 M8.15942268,9.99868667 C7.92973196,9.99868667 7.74313402,9.80763111 7.74313402,9.57245333 C7.74313402,9.33706444 7.92973196,9.14622 8.15942268,9.14622 C8.38952577,9.14622 8.57571134,9.33685333 8.57571134,9.57245333 C8.57550515,9.80763111 8.38952577,9.99868667 8.15942268,9.99868667 M10.823134,6.41887556 C11.0530309,6.41887556 11.2396289,6.60993111 11.2396289,6.84510889 C11.2396289,7.08028667 11.0532371,7.27134222 10.823134,7.27134222 C10.5930309,7.27134222 10.4070515,7.08028667 10.4070515,6.84510889 C10.4072577,6.60993111 10.5932371,6.41887556 10.823134,6.41887556 M10.823134,5.21870889 C8.47839175,5.21870889 6.57096907,7.17190889 6.57096907,9.57266444 C6.57096907,11.97342 8.47839175,13.92662 10.823134,13.92662 C13.1680825,13.92662 15.0757113,11.97342 15.0757113,9.57266444 C15.0757113,7.17190889 13.1680825,5.21870889 10.823134,5.21870889" id="Fill-1" fill="#FFFFFF"></path>
                <g id="Group-5" transform="translate(0.000000, 0.778156)" fill="#FFFFFF">
                    <path d="M4.66224742,16.7031111 L5.14039175,16.7031111 L5.14039175,12.7709556 L4.94616495,11.7603667 C4.48204124,10.8329556 4.24657732,9.83503333 4.24657732,8.79446667 C4.24657732,7.75284444 4.48224742,6.75428889 4.94698969,5.82666667 L5.14039175,4.87054444 L5.14039175,0.885822222 L4.66224742,0.885822222 C2.24162887,2.79616667 0.856680412,5.67023333 0.856680412,8.79446667 C0.856680412,11.9187 2.24162887,14.7927667 4.66224742,16.7031111 L4.66224742,16.7031111 Z M5.99709278,17.5802778 L4.37523711,17.5802778 L4.26101031,17.4928778 C1.55296907,15.4159667 -2.06185568e-05,12.2452889 -2.06185568e-05,8.79446667 C-2.06185568e-05,5.34364444 1.55296907,2.17296667 4.26121649,0.0960555556 L4.3754433,0.00865555556 L5.99729897,0.00865555556 L5.98843299,5.0046 L5.73420619,6.17858889 C5.31564948,6.99495556 5.10348454,7.87528889 5.10348454,8.79446667 C5.10348454,9.71364444 5.31564948,10.5937667 5.73420619,11.4103444 L5.77503093,11.5294111 L5.99750515,12.7281 L5.99750515,17.5802778 L5.99709278,17.5802778 Z" id="Fill-3"></path>
                </g>
                <g id="Group-8" transform="translate(4.536082, 0.144822)">
                    <mask id="mask-2" fill="white">
                        <use xlink:href="#path-1"></use>
                    </mask>
                    <g id="Clip-7"></g>
                    <path d="M6.28696907,14.8142578 C3.38635052,14.8142578 1.02614433,12.3980911 1.02614433,9.42754667 C1.02614433,6.45700222 3.38635052,4.04083556 6.28696907,4.04083556 C9.188,4.04083556 11.548,6.45700222 11.548,9.42754667 C11.548,12.3980911 9.18820619,14.8142578 6.28696907,14.8142578 M6.28696907,0.0662466667 C4.33129897,0.0662466667 2.52098969,0.704013333 1.03274227,1.77920222 L1.03274227,5.54880222 L0.818515464,6.60794667 C0.386350515,7.45133556 0.138927835,8.40956889 0.138927835,9.42754667 C0.138927835,10.4455244 0.386350515,11.4037578 0.818515464,12.2471467 L1.03274227,13.3609689 L1.03274227,17.0761022 C2.52119588,18.15108 4.33129897,18.7888467 6.28696907,18.7888467 C11.3284124,18.7892689 15.4300619,14.5894244 15.4300619,9.42775778 C15.4300619,4.26609111 11.3284124,0.0662466667 6.28696907,0.0662466667" id="Fill-6" fill="#FFFFFF" mask="url(#mask-2)"></path>
                </g>
            </g>
        </g>
    </g>
</svg>