<?xml version="1.0" encoding="UTF-8"?>
<svg width="24px" height="24px" viewBox="0 0 24 24" version="1.1" xmlns="http://www.w3.org/2000/svg" xmlns:xlink="http://www.w3.org/1999/xlink">
    <!-- Generator: Sketch 42 (36781) - http://www.bohemiancoding.com/sketch -->
    <title>icon-amortecedores-white</title>
    <desc>Created with Sketch.</desc>
    <defs>
        <polygon id="path-1" points="5.64688632e-21 0.0232295652 5.64688632e-21 9.25217391 9.30985 9.25217391 9.30985 0.0232295652 0 0.0232295652"></polygon>
        <polygon id="path-3" points="12.3073333 12.1417104 12.3073333 0.0259886957 0.0851833333 0.0259886957 0.0851833333 12.1417104"></polygon>
    </defs>
    <g id="Symbols" stroke="none" stroke-width="1" fill="none" fill-rule="evenodd">
        <g id="icon-amortecedores-white">
            <g id="Page-1" transform="translate(2.000000, 2.000000)">
                <g id="Group-3" transform="translate(0.000000, 9.721887)">
                    <mask id="mask-2" fill="white">
                        <use xlink:href="#path-1"></use>
                    </mask>
                    <g id="Clip-2"></g>
                    <path d="M1.63268333,8.47922087 C1.39685,8.71300348 1.01551667,8.71300348 0.779683333,8.47922087 C0.54385,8.24543826 0.54385,7.86742087 0.779683333,7.63363826 C1.01551667,7.39985565 1.39685,7.39985565 1.63268333,7.63363826 C1.86851667,7.86742087 1.86901667,8.24543826 1.63268333,8.47922087 M1.20618333,6.36559478 L0.779683333,6.78822087 L0.898016667,6.90552522 C0.69885,6.95740348 0.509516667,7.05603826 0.35335,7.21101217 C-0.117816667,7.67791652 -0.117816667,8.43494261 0.35335,8.90201217 C0.82435,9.36891652 1.58801667,9.36891652 2.05918333,8.90201217 C2.21535,8.74703826 2.31485,8.5593513 2.36801667,8.36208174 L2.48618333,8.47922087 L2.91268333,8.05642957 L3.33901667,8.47922087 L9.30985,2.55964696 L6.75118333,0.0232295652 L0.779683333,5.94263826" id="Fill-1" fill="#FFFFFF" mask="url(#mask-2)"></path>
                </g>
                <g id="Group-6" transform="translate(6.666667, 0.139278)">
                    <mask id="mask-4" fill="white">
                        <use xlink:href="#path-3"></use>
                    </mask>
                    <g id="Clip-5"></g>
                    <path d="M11.0316833,3.54511913 C10.40385,4.16765826 9.38568333,4.16765826 8.75718333,3.54511913 C8.12868333,2.92258 8.12868333,1.9127713 8.75718333,1.29039739 C9.38501667,0.667858261 10.4031833,0.667858261 11.0316833,1.29039739 C11.6601833,1.9127713 11.6601833,2.92258 11.0316833,3.54511913 L11.0316833,3.54511913 Z M2.64385,7.91429304 L2.21735,7.49150174 L6.05601667,3.68687565 L6.48251667,4.10966696 L2.64385,7.91429304 Z M11.6005167,0.726345217 C10.6576833,-0.207463478 9.12985,-0.207463478 8.18835,0.726345217 C7.67568333,1.23471913 7.45235,1.91343217 7.49701667,2.57826696 L7.33485,2.41734522 L6.90835,2.84079739 L6.48185,2.41734522 L0.0851833333,8.75971043 L3.49685,12.1417104 L9.89418333,5.80050174 L9.46768333,5.37771043 L9.89418333,4.95508435 L9.73185,4.79482348 C10.4026833,4.83910174 11.08785,4.61787565 11.6005167,4.10966696 C12.5426833,3.17503217 12.54335,1.66098 11.6005167,0.726345217 L11.6005167,0.726345217 Z" id="Fill-4" fill="#FFFFFF" mask="url(#mask-4)"></path>
                </g>
            </g>
        </g>
    </g>
</svg>