<?xml version="1.0" encoding="UTF-8"?>
<svg width="24px" height="24px" viewBox="0 0 24 24" version="1.1" xmlns="http://www.w3.org/2000/svg" xmlns:xlink="http://www.w3.org/1999/xlink">
    <!-- Generator: Sketch 42 (36781) - http://www.bohemiancoding.com/sketch -->
    <title>icon-outros</title>
    <desc>Created with Sketch.</desc>
    <defs>
        <polygon id="path-1" points="2.71875926 2.50648 2.71875926 0.0943090909 0.26132037 0.0943090909 0.26132037 2.50648 2.71875926 2.50648"></polygon>
        <polygon id="path-3" points="5.10157037 5.18181818 0 5.18181818 0 0.172312727 5.10157037 0.172312727 5.10157037 5.18181818"></polygon>
    </defs>
    <g id="Symbols" stroke="none" stroke-width="1" fill="none" fill-rule="evenodd">
        <g id="icon-outros">
            <g id="Page-1" transform="translate(3.000000, 2.000000)">
                <g id="Group-3" transform="translate(16.185185, 0.251249)">
                    <mask id="mask-2" fill="white">
                        <use xlink:href="#path-1"></use>
                    </mask>
                    <g id="Clip-2"></g>
                    <path d="M1.16945,2.50648 L2.53076481,1.16991636 C2.78163519,0.923607273 2.78163519,0.525298182 2.53076481,0.278989091 C2.27954259,0.03268 1.87420926,0.03268 1.62298704,0.278989091 L0.26132037,1.61555273 L1.16945,2.50648 Z" id="Fill-1" fill="#333333" mask="url(#mask-2)"></path>
                </g>
                <path d="M17.8088759,4.98515091 C17.5580056,5.23146 17.1526722,5.23146 16.9007463,4.98515091 L14.1784685,2.31236909 C13.9275981,2.06571455 13.9275981,1.66740545 14.1784685,1.42144182 C14.4293389,1.17478727 14.8350241,1.17478727 15.0858944,1.42144182 L17.8088759,4.09422364 C18.0593944,4.33984182 18.0593944,4.73884182 17.8088759,4.98515091" id="Fill-4" fill="#333333"></path>
                <path d="M16.4465056,6.32174909 C16.195987,6.56805818 15.78995,6.56805818 15.5390796,6.32174909 L12.8168019,3.64862182 C12.5655796,3.40231273 12.5655796,3.00400364 12.8168019,2.75769455 C13.0673204,2.51138545 13.4730056,2.51138545 13.7242278,2.75769455 L16.4465056,5.43047636 C16.6980796,5.67644 16.6973759,6.07544 16.4465056,6.32174909" id="Fill-6" fill="#333333"></path>
                <path d="M15.0851204,7.65817455 C14.83425,7.90448364 14.4289167,7.90517455 14.1776944,7.65817455 L11.4554167,4.98504727 C11.2045463,4.73873818 11.2045463,4.34042909 11.4554167,4.09412 C11.7059352,3.84781091 12.1119722,3.84781091 12.3628426,4.09412 L15.0851204,6.76724727 C15.3363426,7.01355636 15.3363426,7.41255636 15.0851204,7.65817455" id="Fill-8" fill="#333333"></path>
                <polygon id="Fill-10" fill="#333333" points="3.28640185 9.43961455 9.64049444 15.6778327 8.73271667 16.5691055 2.37897593 10.3308873"></polygon>
                <polygon id="Fill-12" fill="#333333" points="3.74032593 12.5594836 6.4626037 15.2322655 5.55517778 16.1235382 2.8329 13.4507564"></polygon>
                <polygon id="Fill-14" fill="#333333" points="6.91761852 15.6776945 7.37115556 16.1233309 6.46337778 17.0149491 6.00948889 16.5693127"></polygon>
                <polygon id="Fill-16" fill="#333333" points="2.83286481 11.6676927 3.2867537 12.1133291 2.37862407 13.0049473 1.92508704 12.5593109"></polygon>
                <g id="Group-20" transform="translate(0.000000, 13.723976)">
                    <mask id="mask-4" fill="white">
                        <use xlink:href="#path-3"></use>
                    </mask>
                    <g id="Clip-19"></g>
                    <path d="M2.37894074,0.172312727 L0.564088889,1.95451273 C-0.18817037,2.69274909 -0.18817037,3.88871273 0.564088889,4.62798545 C1.3159963,5.36656727 2.53410741,5.36656727 3.28671852,4.62798545 L5.10157037,2.84544 L2.37894074,0.172312727 Z" id="Fill-18" fill="#333333" mask="url(#mask-4)"></path>
                </g>
                <path d="M9.6403537,13.0053273 L9.18646481,12.5596909 L11.4552056,10.3318545 L11.9090944,10.7771455 L9.6403537,13.0053273 Z M13.7239463,8.10436364 L11.0013167,5.43054545 C10.2490574,4.69230909 9.03059444,4.69230909 8.27903889,5.43054545 L4.19403889,9.44023636 L9.6403537,14.7875273 L13.7239463,10.7771455 C14.4762056,10.0396 14.4762056,8.84225455 13.7239463,8.10436364 L13.7239463,8.10436364 Z" id="Fill-21" fill="#333333"></path>
            </g>
        </g>
    </g>
</svg>