<?xml version="1.0" encoding="UTF-8"?>
<svg width="24px" height="24px" viewBox="0 0 24 24" version="1.1" xmlns="http://www.w3.org/2000/svg" xmlns:xlink="http://www.w3.org/1999/xlink">
    <!-- Generator: Sketch 42 (36781) - http://www.bohemiancoding.com/sketch -->
    <title>icon-servicos</title>
    <desc>Created with Sketch.</desc>
    <defs></defs>
    <g id="Symbols" stroke="none" stroke-width="1" fill="none" fill-rule="evenodd">
        <g id="icon-servicos" fill="#333333">
            <path d="M21.5155471,4.01050885 L19.5070819,6.01897409 L17.9893212,4.50121343 L19.9886571,2.4836188 L18.8680247,2.16409024 C16.5845367,1.51658844 14.2083854,2.84308843 13.5611118,5.12657647 C13.3668841,5.81150876 13.3458865,6.53364331 13.4999449,7.22861793 L7.23033811,13.4982248 C4.91329957,12.9830991 2.61748687,14.4438011 2.10236118,16.7608396 C1.94693336,17.4599224 1.96884389,18.1868499 2.16581042,18.875434 L2.48533898,19.9869369 L4.49380422,17.9784716 L6.01156488,19.4962323 L4.01222903,21.5138269 L5.13286134,21.8333555 C7.41246939,22.485422 9.78907717,21.1659973 10.4409154,18.8863892 C10.6499784,18.1555818 10.6611619,17.3820944 10.473553,16.6455811 L16.6495836,10.4695505 C18.9506457,11.0513207 21.2877689,9.65749146 21.8693109,7.35620112 C22.0550939,6.62151366 22.0434539,5.85076513 21.8350757,5.12201177 L21.5155471,4.01050885 Z" id="Fill-1"></path>
        </g>
    </g>
</svg>