<?xml version="1.0" encoding="UTF-8"?>
<svg width="141px" height="50px" viewBox="0 0 141 50" version="1.1" xmlns="http://www.w3.org/2000/svg" xmlns:xlink="http://www.w3.org/1999/xlink">
    <!-- Generator: Sketch 42 (36781) - http://www.bohemiancoding.com/sketch -->
    <title>logo</title>
    <desc>Created with Sketch.</desc>
    <defs>
        <polygon id="path-1" points="0 49.0963636 140.618577 49.0963636 140.618577 0 0 0"></polygon>
    </defs>
    <g id="Symbols" stroke="none" stroke-width="1" fill="none" fill-rule="evenodd">
        <g id="logo">
            <g id="Page-1">
                <path d="M70.3295346,0.00972727273 C109.033131,0.00972727273 140.601765,11.0279091 140.601765,24.5360909 C140.601765,38.047 109.033131,49.0624545 70.3295346,49.0624545 C31.6241308,49.0624545 0.0545923077,38.047 0.0545923077,24.5360909 C0.0545923077,11.0279091 31.6241308,0.00972727273 70.3295346,0.00972727273" id="Fill-3" fill="#2A2728"></path>
                <path d="M70.3463462,0.0194545455 C109.033673,0.0194545455 140.586038,11.0276364 140.586038,24.5230909 C140.586038,38.0203636 109.033673,49.0285455 70.3463462,49.0285455 C31.6644423,49.0285455 0.108461538,38.0203636 0.108461538,24.5230909 C0.108461538,11.0276364 31.6644423,0.0194545455 70.3463462,0.0194545455" id="Fill-5" fill="#333132"></path>
                <path d="M70.3639712,0.031 C109.033221,0.031 140.56751,11.0282727 140.56751,24.5119091 C140.56751,37.9955455 109.033221,48.9937273 70.3639712,48.9937273 C31.7019519,48.9937273 0.165855769,37.9955455 0.165855769,24.5119091 C0.165855769,11.0282727 31.7019519,0.031 70.3639712,0.031" id="Fill-7" fill="#393839"></path>
                <path d="M70.3825,0.0417272727 C109.033673,0.0417272727 140.548981,11.0280909 140.548981,24.4999091 C140.548981,37.9717273 109.033673,48.959 70.3825,48.959 C31.7403654,48.959 0.220538462,37.9717273 0.220538462,24.4999091 C0.220538462,11.0280909 31.7403654,0.0417272727 70.3825,0.0417272727" id="Fill-9" fill="#414042"></path>
                <path d="M70.4054577,0.0523636364 C109.028612,0.0523636364 140.533073,11.0278182 140.533073,24.4878182 C140.533073,37.9496364 109.028612,48.9250909 70.4054577,48.9250909 C31.7777846,48.9250909 0.276034615,37.9496364 0.276034615,24.4878182 C0.276034615,11.0278182 31.7777846,0.0523636364 70.4054577,0.0523636364" id="Fill-11" fill="#464547"></path>
                <path d="M70.4239865,0.0611818182 C109.029063,0.0611818182 140.516352,11.0302727 140.516352,24.4739091 C140.516352,37.923 109.029063,48.8902727 70.4239865,48.8902727 C31.8198135,48.8902727 0.332525,37.923 0.332525,24.4739091 C0.332525,11.0302727 31.8198135,0.0611818182 70.4239865,0.0611818182" id="Fill-13" fill="#4D4D4F"></path>
                <path d="M70.4443231,0.071 C109.028612,0.071 140.502342,11.031 140.502342,24.4637273 C140.502342,37.8973636 109.028612,48.8564545 70.4443231,48.8564545 C31.8591308,48.8564545 0.389919231,37.8973636 0.389919231,24.4637273 C0.389919231,11.031 31.8591308,0.071 70.4443231,0.071" id="Fill-15" fill="#515254"></path>
                <path d="M70.4628519,0.0825454545 C109.027256,0.0825454545 140.485621,11.0307273 140.485621,24.4534545 C140.485621,37.8743636 109.027256,48.8225455 70.4628519,48.8225455 C31.8957365,48.8225455 0.442794231,37.8743636 0.442794231,24.4534545 C0.442794231,11.0307273 31.8957365,0.0825454545 70.4628519,0.0825454545" id="Fill-17" fill="#58595B"></path>
                <path d="M70.4804769,0.0913636364 C109.026804,0.0913636364 140.465285,11.0304545 140.465285,24.4395455 C140.465285,37.8486364 109.026804,48.7868182 70.4804769,48.7868182 C31.9359577,48.7868182 0.496573077,37.8486364 0.496573077,24.4395455 C0.496573077,11.0304545 31.9359577,0.0913636364 70.4804769,0.0913636364" id="Fill-19" fill="#5D5D60"></path>
                <path d="M70.5034346,0.102090909 C109.027165,0.102090909 140.449377,11.0302727 140.449377,24.4266364 C140.449377,37.8257273 109.027165,48.753 70.5034346,48.753 C31.9751846,48.753 0.553876923,37.8257273 0.553876923,24.4266364 C0.553876923,11.0302727 31.9751846,0.102090909 70.5034346,0.102090909" id="Fill-21" fill="#616264"></path>
                <path d="M70.5236808,0.113636364 C109.027527,0.113636364 140.432565,11.0309091 140.432565,24.4145455 C140.432565,37.8009091 109.027527,48.7190909 70.5236808,48.7190909 C32.0180269,48.7190909 0.612988462,37.8009091 0.612988462,24.4145455 C0.612988462,11.0309091 32.0180269,0.113636364 70.5236808,0.113636364" id="Fill-23" fill="#67686B"></path>
                <path d="M70.5404923,0.121545455 C109.027165,0.121545455 140.416838,11.0306364 140.416838,24.4024545 C140.416838,37.777 109.027165,48.6851818 70.5404923,48.6851818 C32.0574346,48.6851818 0.667761538,37.777 0.667761538,24.4024545 C0.667761538,11.0306364 32.0574346,0.121545455 70.5404923,0.121545455" id="Fill-25" fill="#6B6C6F"></path>
                <path d="M70.5581173,0.131363636 C109.02581,0.131363636 140.399213,11.0304545 140.399213,24.3922727 C140.399213,37.7513636 109.02581,48.6486364 70.5581173,48.6486364 C32.0958481,48.6486364 0.720636538,37.7513636 0.720636538,24.3922727 C0.720636538,11.0304545 32.0958481,0.131363636 70.5581173,0.131363636" id="Fill-27" fill="#717275"></path>
                <path d="M70.5793577,0.143818182 C109.025358,0.143818182 140.381588,11.0310909 140.381588,24.3792727 C140.381588,37.7292727 109.025358,48.6156364 70.5793577,48.6156364 C32.1333577,48.6156364 0.778030769,37.7292727 0.778030769,24.3792727 C0.778030769,11.0310909 32.1333577,0.143818182 70.5793577,0.143818182" id="Fill-29" fill="#757779"></path>
                <path d="M70.5996038,0.153545455 C109.025719,0.153545455 140.365681,11.0308182 140.365681,24.3671818 C140.365681,37.7026364 109.025719,48.5817273 70.5996038,48.5817273 C32.1716808,48.5817273 0.833526923,37.7026364 0.833526923,24.3671818 C0.833526923,11.0308182 32.1716808,0.153545455 70.5996038,0.153545455" id="Fill-31" fill="#797A7D"></path>
                <path d="M70.6216577,0.162454545 C109.025177,0.162454545 140.348869,11.0306364 140.348869,24.3551818 C140.348869,37.6788182 109.025177,48.5479091 70.6216577,48.5479091 C32.2127154,48.5479091 0.891734615,37.6788182 0.891734615,24.3551818 C0.891734615,11.0306364 32.2127154,0.162454545 70.6216577,0.162454545" id="Fill-33" fill="#7E8083"></path>
                <path d="M70.6402769,0.174 C109.025719,0.174 140.331335,11.0303636 140.331335,24.3421818 C140.331335,37.6549091 109.025719,48.514 70.6402769,48.514 C32.2530269,48.514 0.946507692,37.6549091 0.946507692,24.3421818 C0.946507692,11.0303636 32.2530269,0.174 70.6402769,0.174" id="Fill-35" fill="#848688"></path>
                <path d="M70.6588058,0.182 C109.025267,0.182 140.315517,11.032 140.315517,24.3292727 C140.315517,37.6301818 109.025267,48.4774545 70.6588058,48.4774545 C32.2950558,48.4774545 1.00119038,37.6301818 1.00119038,24.3292727 C1.00119038,11.032 32.2950558,0.182 70.6588058,0.182" id="Fill-37" fill="#888A8D"></path>
                <path d="M70.6773346,0.193454545 C109.023008,0.193454545 140.2997,11.0316364 140.2997,24.3198182 C140.2997,37.6052727 109.023008,48.4434545 70.6773346,48.4434545 C32.32895,48.4434545 1.05496923,37.6052727 1.05496923,24.3198182 C1.05496923,11.0316364 32.32895,0.193454545 70.6773346,0.193454545" id="Fill-39" fill="#8B8E90"></path>
                <path d="M70.6975808,0.202363636 C109.022465,0.202363636 140.282888,11.0314545 140.282888,24.3050909 C140.282888,37.5805455 109.022465,48.4096364 70.6975808,48.4096364 C32.3699846,48.4096364 1.10956154,37.5805455 1.10956154,24.3050909 C1.10956154,11.0314545 32.3699846,0.202363636 70.6975808,0.202363636" id="Fill-41" fill="#919396"></path>
                <path d="M70.7179173,0.213909091 C109.022917,0.213909091 140.262552,11.0311818 140.262552,24.2948182 C140.262552,37.5566364 109.022917,48.3757273 70.7179173,48.3757273 C32.4083981,48.3757273 1.16876346,37.5566364 1.16876346,24.2948182 C1.16876346,11.0311818 32.4083981,0.213909091 70.7179173,0.213909091" id="Fill-43" fill="#95979A"></path>
                <path d="M70.7346385,0.223727273 C109.022465,0.223727273 140.246735,11.0319091 140.246735,24.2828182 C140.246735,37.5328182 109.022465,48.3419091 70.7346385,48.3419091 C32.4477154,48.3419091 1.22435,37.5328182 1.22435,24.2828182 C1.22435,11.0319091 32.4477154,0.223727273 70.7346385,0.223727273" id="Fill-45" fill="#9B9DA0"></path>
                <path d="M70.7567827,0.233454545 C109.022917,0.233454545 140.231821,11.0316364 140.231821,24.2698182 C140.231821,37.508 109.022917,48.3043636 70.7567827,48.3043636 C32.4906481,48.3043636 1.277225,37.508 1.277225,24.2698182 C1.277225,11.0316364 32.4906481,0.233454545 70.7567827,0.233454545" id="Fill-47" fill="#9FA1A4"></path>
                <path d="M70.7735038,0.245 C109.022465,0.245 140.216004,11.0313636 140.216004,24.2586364 C140.216004,37.4859091 109.022465,48.2722727 70.7735038,48.2722727 C32.5281577,48.2722727 1.33461923,37.4859091 1.33461923,24.2586364 C1.33461923,11.0313636 32.5281577,0.245 70.7735038,0.245" id="Fill-49" fill="#A3A5A8"></path>
                <path d="M70.7955577,0.254727273 C109.022827,0.254727273 140.199192,11.0310909 140.199192,24.2456364 C140.199192,37.4583636 109.022827,48.2374545 70.7955577,48.2374545 C32.5664808,48.2374545 1.39192308,37.4583636 1.39192308,24.2456364 C1.39192308,11.0310909 32.5664808,0.254727273 70.7955577,0.254727273" id="Fill-51" fill="#A9ABAE"></path>
                <path d="M70.8140865,0.264545455 C109.022375,0.264545455 140.180663,11.0318182 140.180663,24.2336364 C140.180663,37.4354545 109.022375,48.2036364 70.8140865,48.2036364 C32.6057981,48.2036364 1.44660577,37.4354545 1.44660577,24.2336364 C1.44660577,11.0318182 32.6057981,0.264545455 70.8140865,0.264545455" id="Fill-53" fill="#AFB1B4"></path>
                <path d="M70.8326154,0.275181818 C109.019212,0.275181818 140.163038,11.0315455 140.163038,24.2224545 C140.163038,37.4097273 109.019212,48.1679091 70.8326154,48.1679091 C32.6460192,48.1679091 1.50219231,37.4097273 1.50219231,24.2224545 C1.50219231,11.0315455 32.6460192,0.275181818 70.8326154,0.275181818" id="Fill-55" fill="#B4B6B8"></path>
                <path d="M70.8485231,0.284909091 C109.01885,0.284909091 140.146408,11.0312727 140.146408,24.2094545 C140.146408,37.3858182 109.01885,48.134 70.8485231,48.134 C32.6845231,48.134 1.55335,37.3858182 1.55335,24.2094545 C1.55335,11.0312727 32.6845231,0.284909091 70.8485231,0.284909091" id="Fill-57" fill="#B8BABC"></path>
                <path d="M70.8714808,0.294727273 C109.019212,0.294727273 140.1305,11.032 140.1305,24.1974545 C140.1305,37.3629091 109.019212,48.1001818 70.8714808,48.1001818 C32.72375,48.1001818 1.61426923,37.3629091 1.61426923,24.1974545 C1.61426923,11.032 32.72375,0.294727273 70.8714808,0.294727273" id="Fill-59" fill="#BEC0C2"></path>
                <path d="M70.8900096,0.304454545 C109.016952,0.304454545 140.115587,11.0317273 140.115587,24.1853636 C140.115587,37.3380909 109.016952,48.0662727 70.8900096,48.0662727 C32.7639712,48.0662727 1.67166346,37.3380909 1.67166346,24.1853636 C1.67166346,11.0317273 32.7639712,0.304454545 70.8900096,0.304454545" id="Fill-61" fill="#C2C4C6"></path>
                <path d="M70.9120635,0.316 C109.019121,0.316 140.097871,11.0314545 140.097871,24.1723636 C140.097871,37.3132727 109.019121,48.0323636 70.9120635,48.0323636 C32.8031981,48.0323636 1.72625577,37.3132727 1.72625577,24.1723636 C1.72625577,11.0314545 32.8031981,0.316 70.9120635,0.316" id="Fill-63" fill="#C9CACC"></path>
                <path d="M70.9305923,0.324909091 C109.019573,0.324909091 140.08115,11.0330909 140.08115,24.1612727 C140.08115,37.2876364 109.019573,47.9958182 70.9305923,47.9958182 C32.8434192,47.9958182 1.78003462,37.2876364 1.78003462,24.1612727 C1.78003462,11.0330909 32.8434192,0.324909091 70.9305923,0.324909091" id="Fill-65" fill="#CDCFD0"></path>
                <path d="M70.9465,0.336454545 C109.019212,0.336454545 140.067231,11.0337273 140.067231,24.1482727 C140.067231,37.2646364 109.019212,47.9628182 70.9465,47.9628182 C32.8828269,47.9628182 1.83751923,37.2646364 1.83751923,24.1482727 C1.83751923,11.0337273 32.8828269,0.336454545 70.9465,0.336454545" id="Fill-67" fill="#D1D3D4"></path>
                <path d="M70.9712654,0.344454545 C109.019573,0.344454545 140.046804,11.0335455 140.046804,24.1371818 C140.046804,37.2408182 109.019573,47.9262727 70.9712654,47.9262727 C32.92115,47.9262727 1.89391923,37.2408182 1.89391923,24.1371818 C1.89391923,11.0335455 32.92115,0.344454545 70.9712654,0.344454545" id="Fill-69" fill="#D7D9DA"></path>
                <path d="M70.9897942,0.356 C109.01641,0.356 140.028275,11.0332727 140.028275,24.126 C140.028275,37.216 109.01641,47.8950909 70.9897942,47.8950909 C32.9604673,47.8950909 1.94950577,37.216 1.94950577,24.126 C1.94950577,11.0332727 32.9604673,0.356 70.9897942,0.356" id="Fill-71" fill="#DCDDDE"></path>
                <path d="M71.0065154,0.365727273 C109.019573,0.365727273 140.014265,11.033 140.014265,24.1120909 C140.014265,37.1911818 109.019573,47.8584545 71.0065154,47.8584545 C33.0015923,47.8584545 2.00418846,37.1911818 2.00418846,24.1120909 C2.00418846,11.033 33.0015923,0.365727273 71.0065154,0.365727273" id="Fill-73" fill="#E2E3E4"></path>
                <path d="M71.0285692,0.376363636 C109.019031,0.376363636 139.997454,11.0336364 139.997454,24.1018182 C139.997454,37.1681818 109.019031,47.8245455 71.0285692,47.8245455 C33.0408192,47.8245455 2.05787692,37.1681818 2.05787692,24.1018182 C2.05787692,11.0336364 33.0408192,0.376363636 71.0285692,0.376363636" id="Fill-75" fill="#E6E7E8"></path>
                <path d="M71.0470981,0.387 C109.013156,0.387 139.981637,11.0342727 139.981637,24.0888182 C139.981637,37.1433636 109.013156,47.7897273 71.0470981,47.7897273 C33.0792327,47.7897273 2.11436731,37.1433636 2.11436731,24.0888182 C2.11436731,11.0342727 33.0792327,0.387 71.0470981,0.387" id="Fill-77" fill="#EDEDEE"></path>
                <path d="M71.0657173,0.396818182 C109.012794,0.396818182 139.965006,11.0340909 139.965006,24.0759091 C139.965006,37.1186364 109.012794,47.755 71.0657173,47.755 C33.1204481,47.755 2.17004423,37.1186364 2.17004423,24.0759091 C2.17004423,11.0340909 33.1204481,0.396818182 71.0657173,0.396818182" id="Fill-79" fill="#F1F1F2"></path>
                <path d="M71.0877712,0.407454545 C109.013156,0.407454545 139.946387,11.0338182 139.946387,24.0638182 C139.946387,37.0947273 109.013156,47.7210909 71.0877712,47.7210909 C33.1587712,47.7210909 2.22554038,37.0947273 2.22554038,24.0638182 C2.22554038,11.0338182 33.1587712,0.407454545 71.0877712,0.407454545" id="Fill-81" fill="#F9F9F9"></path>
                <path d="M71.1044923,0.417181818 C109.012704,0.417181818 139.929665,11.0344545 139.929665,24.0517273 C139.929665,37.069 109.012704,47.6871818 71.1044923,47.6871818 C33.1980885,47.6871818 2.28022308,37.069 2.28022308,24.0517273 C2.28022308,11.0344545 33.1980885,0.417181818 71.1044923,0.417181818" id="Fill-83" fill="#FFFFFF"></path>
                <path d="M71.1044923,0.468727273 C108.977454,0.468727273 139.864588,11.0550909 139.864588,24.0323636 C139.864588,37.0114545 108.977454,47.5978182 71.1044923,47.5978182 C33.2369538,47.5978182 2.34801154,37.0114545 2.34801154,24.0323636 C2.34801154,11.0550909 33.2369538,0.468727273 71.1044923,0.468727273" id="Fill-85" fill="#F9F9F9"></path>
                <path d="M71.1080173,0.522 C108.94121,0.522 139.794902,11.0765455 139.794902,24.0156364 C139.794902,36.9538182 108.94121,47.5083636 71.1080173,47.5083636 C33.2775365,47.5083636 2.419325,36.9538182 2.419325,24.0156364 C2.419325,11.0765455 33.2775365,0.522 71.1080173,0.522" id="Fill-87" fill="#F1F1F2"></path>
                <path d="M71.1080173,0.577 C108.902344,0.577 139.725306,11.0979091 139.725306,23.9960909 C139.725306,36.897 108.902344,47.4160909 71.1080173,47.4160909 C33.3154981,47.4160909 2.48892115,36.897 2.48892115,23.9960909 C2.48892115,11.0979091 33.3154981,0.577 71.1080173,0.577" id="Fill-89" fill="#EDEDEE"></path>
                <path d="M71.1124462,0.629363636 C108.8661,0.629363636 139.661946,11.1175455 139.661946,23.9775455 C139.661946,36.8375455 108.8661,47.3257273 71.1124462,47.3257273 C33.3551769,47.3257273 2.56023462,36.8375455 2.56023462,23.9775455 C2.56023462,11.1175455 33.3551769,0.629363636 71.1124462,0.629363636" id="Fill-91" fill="#E6E7E8"></path>
                <path d="M71.1124462,0.683545455 C108.83085,0.683545455 139.593254,11.1399091 139.593254,23.9608182 C139.593254,36.7808182 108.83085,47.2371818 71.1124462,47.2371818 C33.3922346,47.2371818 2.62711923,36.7808182 2.62711923,23.9608182 C2.62711923,11.1399091 33.3922346,0.683545455 71.1124462,0.683545455" id="Fill-93" fill="#E2E3E4"></path>
                <path d="M71.1124462,0.738636364 C108.793792,0.738636364 139.527273,11.1613636 139.527273,23.9413636 C139.527273,36.7222727 108.793792,47.1477273 71.1124462,47.1477273 C33.4329077,47.1477273 2.69761923,36.7222727 2.69761923,23.9413636 C2.69761923,11.1613636 33.4329077,0.738636364 71.1124462,0.738636364" id="Fill-95" fill="#DCDDDE"></path>
                <path d="M71.1124462,0.790090909 C108.756735,0.790090909 139.457677,11.1819091 139.457677,23.9228182 C139.457677,36.6655455 108.756735,47.0582727 71.1124462,47.0582727 C33.4708692,47.0582727 2.76721538,36.6655455 2.76721538,23.9228182 C2.76721538,11.1819091 33.4708692,0.790090909 71.1124462,0.790090909" id="Fill-97" fill="#D7D9DA"></path>
                <path d="M71.116875,0.843363636 C108.718683,0.843363636 139.39251,11.2033636 139.39251,23.9042727 C139.39251,36.607 108.718683,46.9688182 71.116875,46.9688182 C33.5105481,46.9688182 2.83852885,36.607 2.83852885,23.9042727 C2.83852885,11.2033636 33.5105481,0.843363636 71.116875,0.843363636" id="Fill-99" fill="#D1D3D4"></path>
                <path d="M71.116875,0.895727273 C108.68524,0.895727273 139.322913,11.2239091 139.322913,23.8857273 C139.322913,36.5493636 108.68524,46.8766364 71.116875,46.8766364 C33.5476058,46.8766364 2.90541346,36.5493636 2.90541346,23.8857273 C2.90541346,11.2239091 33.5476058,0.895727273 71.116875,0.895727273" id="Fill-101" fill="#CDCFD0"></path>
                <path d="M71.1185923,0.948090909 C108.647188,0.948090909 139.255938,11.2453636 139.255938,23.8671818 C139.255938,36.4917273 108.647188,46.789 71.1185923,46.789 C33.5863808,46.789 2.97491923,36.4917273 2.97491923,23.8671818 C2.97491923,11.2453636 33.5863808,0.948090909 71.1185923,0.948090909" id="Fill-103" fill="#C9CACC"></path>
                <path d="M71.1185923,1.00227273 C108.608323,1.00227273 139.191765,11.2668182 139.191765,23.8486364 C139.191765,36.4331818 108.608323,46.6968182 71.1185923,46.6968182 C33.6252462,46.6968182 3.04722692,36.4331818 3.04722692,23.8486364 C3.04722692,11.2668182 33.6252462,1.00227273 71.1185923,1.00227273" id="Fill-105" fill="#C2C4C6"></path>
                <path d="M71.1185923,1.05463636 C108.574881,1.05463636 139.122169,11.2864545 139.122169,23.8328182 C139.122169,36.3764545 108.574881,46.6073636 71.1185923,46.6073636 C33.6641115,46.6073636 3.11682308,36.3764545 3.11682308,23.8328182 C3.11682308,11.2864545 33.6641115,1.05463636 71.1185923,1.05463636" id="Fill-107" fill="#BEC0C2"></path>
                <path d="M71.1204,1.10881818 C108.537823,1.10881818 139.055285,11.3079091 139.055285,23.8142727 C139.055285,36.3188182 108.537823,46.5160909 71.1204,46.5160909 C33.7029769,46.5160909 3.18370769,36.3188182 3.18370769,23.8142727 C3.18370769,11.3079091 33.7029769,1.10881818 71.1204,1.10881818" id="Fill-109" fill="#B8BABC"></path>
                <path d="M71.1204,1.16118182 C108.498958,1.16118182 138.987496,11.3302727 138.987496,23.7939091 C138.987496,36.2611818 108.498958,46.4266364 71.1204,46.4266364 C33.7418423,46.4266364 3.25511154,36.2611818 3.25511154,23.7939091 C3.25511154,11.3302727 33.7418423,1.16118182 71.1204,1.16118182" id="Fill-111" fill="#B4B6B8"></path>
                <path d="M71.1248288,1.21618182 C108.465425,1.21618182 138.920521,11.3498182 138.920521,23.7761818 C138.920521,36.2016364 108.465425,46.3370909 71.1248288,46.3370909 C33.782425,46.3370909 3.32461731,36.2016364 3.32461731,23.7761818 C3.32461731,11.3498182 33.782425,1.21618182 71.1248288,1.21618182" id="Fill-113" fill="#AFB1B4"></path>
                <path d="M71.1248288,1.26945455 C108.427463,1.26945455 138.853637,11.3712727 138.853637,23.7567273 C138.853637,36.144 108.427463,46.2494545 71.1248288,46.2494545 C33.8194827,46.2494545 3.39602115,36.144 3.39602115,23.7567273 C3.39602115,11.3712727 33.8194827,1.26945455 71.1248288,1.26945455" id="Fill-115" fill="#A9ABAE"></path>
                <path d="M71.1248288,1.32190909 C108.389502,1.32190909 138.784944,11.3928182 138.784944,23.7400909 C138.784944,36.0864545 108.389502,46.1573636 71.1248288,46.1573636 C33.8583481,46.1573636 3.46380962,36.0864545 3.46380962,23.7400909 C3.46380962,11.3928182 33.8583481,1.32190909 71.1248288,1.32190909" id="Fill-117" fill="#A3A5A8"></path>
                <path d="M71.1248288,1.37518182 C108.354252,1.37518182 138.719867,11.4133636 138.719867,23.7224545 C138.719867,36.0297273 108.354252,46.0679091 71.1248288,46.0679091 C33.8981173,46.0679091 3.53611731,36.0297273 3.53611731,23.7224545 C3.53611731,11.4133636 33.8981173,1.37518182 71.1248288,1.37518182" id="Fill-119" fill="#9FA1A4"></path>
                <path d="M71.1248288,1.42836364 C108.319906,1.42836364 138.648463,11.4356364 138.648463,23.7038182 C138.648463,35.9701818 108.319906,45.9792727 71.1248288,45.9792727 C33.9396942,45.9792727 3.60300192,35.9701818 3.60300192,23.7038182 C3.60300192,11.4356364 33.9396942,1.42836364 71.1248288,1.42836364" id="Fill-121" fill="#9B9DA0"></path>
                <path d="M71.1283538,1.48254545 C108.28095,1.48254545 138.583296,11.4561818 138.583296,23.6852727 C138.583296,35.9134545 108.28095,45.888 71.1283538,45.888 C33.9766615,45.888 3.67250769,35.9134545 3.67250769,23.6852727 C3.67250769,11.4561818 33.9766615,1.48254545 71.1283538,1.48254545" id="Fill-123" fill="#95979A"></path>
                <path d="M71.130975,1.53581818 C108.242898,1.53581818 138.515417,11.4767273 138.515417,23.6667273 C138.515417,35.8567273 108.242898,45.7976364 71.130975,45.7976364 C34.0154365,45.7976364 3.74201346,35.8567273 3.74201346,23.6667273 C3.74201346,11.4767273 34.0154365,1.53581818 71.130975,1.53581818" id="Fill-125" fill="#919396"></path>
                <path d="M71.1327827,1.58818182 C108.209456,1.58818182 138.45034,11.4981818 138.45034,23.6490909 C138.45034,35.7981818 108.209456,45.7072727 71.1327827,45.7072727 C34.0543019,45.7072727 3.81432115,35.7981818 3.81432115,23.6490909 C3.81432115,11.4981818 34.0543019,1.58818182 71.1327827,1.58818182" id="Fill-127" fill="#8B8E90"></path>
                <path d="M71.1327827,1.64054545 C108.174206,1.64054545 138.382552,11.5178182 138.382552,23.6296364 C138.382552,35.7396364 108.174206,45.6178182 71.1327827,45.6178182 C34.0913596,45.6178182 3.88120577,35.7396364 3.88120577,23.6296364 C3.88120577,11.5178182 34.0913596,1.64054545 71.1327827,1.64054545" id="Fill-129" fill="#888A8D"></path>
                <path d="M71.1327827,1.69472727 C108.13534,1.69472727 138.312956,11.5401818 138.312956,23.6101818 C138.312956,35.6829091 108.13534,45.5274545 71.1327827,45.5274545 C34.130225,45.5274545 3.95260962,35.6829091 3.95260962,23.6101818 C3.95260962,11.5401818 34.130225,1.69472727 71.1327827,1.69472727" id="Fill-131" fill="#848688"></path>
                <path d="M71.1327827,1.74709091 C108.100994,1.74709091 138.247879,11.5607273 138.247879,23.5925455 C138.247879,35.6243636 108.100994,45.4389091 71.1327827,45.4389091 C34.1690904,45.4389091 4.01949423,35.6243636 4.01949423,23.5925455 C4.01949423,11.5607273 34.1690904,1.74709091 71.1327827,1.74709091" id="Fill-133" fill="#7E8083"></path>
                <path d="M71.1372115,1.80218182 C108.062942,1.80218182 138.180904,11.5821818 138.180904,23.5730909 C138.180904,35.5676364 108.062942,45.3476364 71.1372115,45.3476364 C34.2096731,45.3476364 4.08719231,35.5676364 4.08719231,23.5730909 C4.08719231,11.5821818 34.2096731,1.80218182 71.1372115,1.80218182" id="Fill-135" fill="#797A7D"></path>
                <path d="M71.1372115,1.85454545 C108.025885,1.85454545 138.113115,11.6045455 138.113115,23.5563636 C138.113115,35.5081818 108.025885,45.2590909 71.1372115,45.2590909 C34.2467308,45.2590909 4.1595,35.5081818 4.1595,23.5563636 C4.1595,11.6045455 34.2467308,1.85454545 71.1372115,1.85454545" id="Fill-137" fill="#757779"></path>
                <path d="M71.1389288,1.90690909 C107.98964,1.90690909 138.045237,11.6241818 138.045237,23.5387273 C138.045237,35.4523636 107.98964,45.1678182 71.1389288,45.1678182 C34.2855058,45.1678182 4.22810192,35.4523636 4.22810192,23.5387273 C4.22810192,11.6241818 34.2855058,1.90690909 71.1389288,1.90690909" id="Fill-139" fill="#717275"></path>
                <path d="M71.1389288,1.96109091 C107.951679,1.96109091 137.978352,11.6456364 137.978352,23.5201818 C137.978352,35.392 107.951679,45.0783636 71.1389288,45.0783636 C34.3243712,45.0783636 4.30040962,35.392 4.30040962,23.5201818 C4.30040962,11.6456364 34.3243712,1.96109091 71.1389288,1.96109091" id="Fill-141" fill="#6B6C6F"></path>
                <path d="M71.1433577,2.01345455 C107.915435,2.01345455 137.912281,11.6652727 137.912281,23.5016364 C137.912281,35.3352727 107.915435,44.988 71.1433577,44.988 C34.3631462,44.988 4.36901154,35.3352727 4.36901154,23.5016364 C4.36901154,11.6652727 34.3631462,2.01345455 71.1433577,2.01345455" id="Fill-143" fill="#67686B"></path>
                <path d="M71.1433577,2.06845455 C107.879281,2.06845455 137.843588,11.6866364 137.843588,23.483 C137.843588,35.2766364 107.879281,44.8984545 71.1433577,44.8984545 C34.4038192,44.8984545 4.43860769,35.2766364 4.43860769,23.483 C4.43860769,11.6866364 34.4038192,2.06845455 71.1433577,2.06845455" id="Fill-145" fill="#616264"></path>
                <path d="M71.1433577,2.12090909 C107.843127,2.12090909 137.780319,11.7090909 137.780319,23.4654545 C137.780319,35.2190909 107.843127,44.8072727 71.1433577,44.8072727 C34.4381654,44.8072727 4.50549231,35.2190909 4.50549231,23.4654545 C4.50549231,11.7090909 34.4381654,2.12090909 71.1433577,2.12090909" id="Fill-147" fill="#5D5D60"></path>
                <path d="M71.145075,2.17327273 C107.807787,2.17327273 137.708825,11.7296364 137.708825,23.446 C137.708825,35.1623636 107.807787,44.7178182 71.145075,44.7178182 C34.4814596,44.7178182 4.57590192,35.1623636 4.57590192,23.446 C4.57590192,11.7296364 34.4814596,2.17327273 71.145075,2.17327273" id="Fill-149" fill="#58595B"></path>
                <path d="M71.145075,2.22827273 C107.769825,2.22827273 137.640133,11.751 137.640133,23.4273636 C137.640133,35.1046364 107.769825,44.6291818 71.145075,44.6291818 C34.520325,44.6291818 4.64730577,35.1046364 4.64730577,23.4273636 C4.64730577,11.751 34.520325,2.22827273 71.145075,2.22827273" id="Fill-151" fill="#515254"></path>
                <path d="M71.145075,2.27981818 C107.731863,2.27981818 137.573248,11.7716364 137.573248,23.4089091 C137.573248,35.0452727 107.731863,44.5361818 71.145075,44.5361818 C34.5573827,44.5361818 4.71690192,35.0452727 4.71690192,23.4089091 C4.71690192,11.7716364 34.5573827,2.27981818 71.145075,2.27981818" id="Fill-153" fill="#4D4D4F"></path>
                <path d="M71.1468827,2.33309091 C107.698421,2.33309091 137.508171,11.7930909 137.508171,23.3894545 C137.508171,34.9867273 107.698421,44.4476364 71.1468827,44.4476364 C34.5962481,44.4476364 4.78378654,34.9867273 4.78378654,23.3894545 C4.78378654,11.7930909 34.5962481,2.33309091 71.1468827,2.33309091" id="Fill-155" fill="#464547"></path>
                <path d="M71.1495038,2.38636364 C107.661273,2.38636364 137.441196,11.8136364 137.441196,23.3718182 C137.441196,34.9318182 107.661273,44.3581818 71.1495038,44.3581818 C34.6368308,44.3581818 4.85329231,34.9318182 4.85329231,23.3718182 C4.85329231,11.8136364 34.6368308,2.38636364 71.1495038,2.38636364" id="Fill-157" fill="#414042"></path>
                <path d="M71.1495038,2.44045455 C107.625119,2.44045455 137.373408,11.8340909 137.373408,23.3540909 C137.373408,34.8731818 107.625119,44.2695455 71.1495038,44.2695455 C34.6738885,44.2695455 4.92379231,34.8731818 4.92379231,23.3540909 C4.92379231,11.8340909 34.6738885,2.44045455 71.1495038,2.44045455" id="Fill-159" fill="#393839"></path>
                <path d="M71.1495038,2.49372727 C107.588062,2.49372727 137.309235,11.8555455 137.309235,23.3364545 C137.309235,34.8155455 107.588062,44.1782727 71.1495038,44.1782727 C34.7136577,44.1782727 4.99519615,34.8155455 4.99519615,23.3364545 C4.99519615,11.8555455 34.7136577,2.49372727 71.1495038,2.49372727" id="Fill-161" fill="#333132"></path>
                <path d="M71.1495038,2.54609091 C107.551004,2.54609091 137.237831,11.877 137.237831,23.3179091 C137.237831,34.7588182 107.551004,44.087 71.1495038,44.087 C34.7507154,44.087 5.06208077,34.7588182 5.06208077,23.3179091 C5.06208077,11.877 34.7507154,2.54609091 71.1495038,2.54609091" id="Fill-163" fill="#2A2728"></path>
                <path d="M71.1530288,2.59854545 C107.516567,2.59854545 137.170856,11.8985455 137.170856,23.2985455 C137.170856,34.7003636 107.516567,43.9976364 71.1530288,43.9976364 C34.7903942,43.9976364 5.13520192,34.7003636 5.13520192,23.2985455 C5.13520192,11.8985455 34.7903942,2.59854545 71.1530288,2.59854545" id="Fill-165" fill="#231F1F"></path>
                <path d="M70.3074808,2.69436364 C107.290154,2.69436364 137.283385,12.4807273 137.283385,24.5470909 C137.283385,36.6152727 107.290154,46.4025455 70.3074808,46.4025455 C33.3266154,46.4025455 3.33519231,36.6152727 3.33519231,24.5470909 C3.33519231,12.4807273 33.3266154,2.69436364 70.3074808,2.69436364" id="Fill-167" fill="#ED1D24"></path>
                <polygon id="Fill-169" fill="#231F1F" points="55.510525 30.9818182 58.1596981 14.8281818 63.4625635 14.8281818 61.6169096 26.0081818 66.0294865 26.0081818 65.2078904 30.9818182"></polygon>
                <polygon id="Fill-171" fill="#231F1F" points="43.7508538 30.9818182 46.5003538 14.8281818 51.8258154 14.8281818 49.9232192 26.0081818 54.3782769 26.0081818 53.5530654 30.9818182"></polygon>
                <polygon id="Fill-173" fill="#231F1F" points="30.5532538 30.9694545 33.3081769 14.8285455 43.3137538 14.8285455 42.5744077 19.2094545 37.8671769 19.2094545 37.6041577 20.7630909 42.2960231 20.7630909 41.5991577 24.8576364 36.9434462 24.8576364 36.6614462 26.6021818 41.3144462 26.6021818 40.5624462 30.9821818"></polygon>
                <path d="M21.7424712,26.1274545 L21.8003173,26.1274545 C22.9590481,26.1274545 23.8637981,25.7965455 24.5172788,25.1329091 C25.1680481,24.4738182 25.4988558,23.5665455 25.4988558,22.4210909 C25.4988558,21.5738182 25.2620481,20.9074545 24.798375,20.4174545 C24.3292788,19.9274545 23.693875,19.6829091 22.8912596,19.6829091 L22.7909327,19.6829091 L21.7424712,26.1274545 Z M15.7418365,30.982 L18.3910096,14.8283636 L22.2694135,14.8283636 C23.4715288,14.8283636 24.4784135,14.8956364 25.2864519,15.0283636 C26.0935865,15.1601818 26.7561058,15.3629091 27.2731058,15.6347273 C28.4029135,16.2674545 29.2669904,17.1338182 29.8635288,18.2338182 C30.4627788,19.332 30.7619519,20.6056364 30.7619519,22.0556364 C30.7619519,23.4165455 30.4998365,24.692 29.980125,25.8801818 C29.451375,27.0656364 28.7174519,28.0610909 27.7738365,28.8538182 C26.8826442,29.6038182 25.8522596,30.1474545 24.6817788,30.482 C23.5122019,30.8156364 22.0425481,30.982 20.2646827,30.982 L15.7418365,30.982 Z" id="Fill-175" fill="#231F1F"></path>
                <polygon id="Fill-177" fill="#231F1F" points="66.6832385 30.9836364 74.5602577 14.8281818 79.4889308 14.8281818 81.7675269 30.9836364 76.5523346 30.9836364 75.5996808 23.1736364 72.4687577 30.9836364"></polygon>
                <polygon id="Fill-179" fill="#231F1F" points="99.5191558 31.0031818 102.272271 14.8340909 107.616713 14.8340909 104.841906 31.0031818"></polygon>
                <path d="M88.4038365,30.9623636 L85.9842404,14.8350909 L91.1524327,14.8350909 L91.9044327,22.7305455 C92.9791058,20.1314545 94.099875,17.4587273 95.1700288,14.8350909 L100.809125,14.8350909 L93.030625,30.9623636 L88.4038365,30.9623636 Z" id="Fill-181" fill="#231F1F"></path>
                <polygon id="Fill-183" fill="#231F1F" points="106.566354 30.9623636 114.495796 14.8078182 119.466046 14.8078182 121.759104 30.9623636 116.502335 30.9623636 115.549681 23.1514545 112.394354 30.9623636"></polygon>
                <polygon id="Fill-185" fill="#FFFFFF" points="56.5917962 30.3897273 59.2382577 14.2351818 64.5420269 14.2351818 62.7008923 25.4133636 67.1152769 25.4133636 66.2909692 30.3897273"></polygon>
                <polygon id="Fill-187" fill="#FFFFFF" points="44.8320346 30.3897273 47.5833423 14.2351818 52.9033808 14.2351818 51.0044 25.4133636 55.4549385 25.4133636 54.6324385 30.3897273"></polygon>
                <polygon id="Fill-189" fill="#FFFFFF" points="31.6336212 30.3746364 34.3867365 14.2355455 44.3923135 14.2355455 43.6529673 18.6146364 38.9484481 18.6146364 38.684525 20.171 43.3791019 20.171 42.6822365 24.2646364 38.0247173 24.2646364 37.7454288 26.011 42.3921019 26.011 41.6437173 30.3900909"></polygon>
                <path d="M22.8237423,25.5343636 L22.8843,25.5343636 C24.0394154,25.5343636 24.9450692,25.2034545 25.6012615,24.5389091 C26.2493192,23.8816364 26.5792231,22.9725455 26.5792231,21.8289091 C26.5792231,20.9798182 26.3451269,20.3134545 25.8787423,19.8252727 C25.4123577,19.3352727 24.7751462,19.0898182 23.9734346,19.0898182 L23.8722038,19.0898182 L22.8237423,25.5343636 Z M16.8231077,30.3898182 L19.4695692,14.2352727 L23.3552038,14.2352727 C24.5528,14.2352727 25.5596846,14.3034545 26.3695308,14.4343636 C27.1739538,14.5670909 27.8364731,14.7716364 28.3516654,15.0416364 C29.4814731,15.6752727 30.3464538,16.5398182 30.9466077,17.6389091 C31.54405,18.7389091 31.8432231,20.0125455 31.8432231,21.4625455 C31.8432231,22.8243636 31.5829154,24.0998182 31.0613962,25.2861818 C30.5317423,26.4734545 29.8014346,27.4661818 28.8551077,28.2607273 C27.9639154,29.0089091 26.9362423,29.5543636 25.7666654,29.8889091 C24.5952808,30.2225455 23.1238192,30.3898182 21.3459538,30.3898182 L16.8231077,30.3898182 Z" id="Fill-191" fill="#FFFFFF"></path>
                <polygon id="Fill-193" fill="#FFFFFF" points="67.7645096 30.3897273 75.6388173 14.2351818 80.5702019 14.2351818 82.8469904 30.3897273 77.6272788 30.3897273 76.6827596 22.5806364 73.5500288 30.3897273"></polygon>
                <polygon id="Fill-195" fill="#FFFFFF" points="100.603048 30.4092727 103.351644 14.2401818 108.699702 14.2401818 105.923087 30.4092727"></polygon>
                <path d="M89.4833,30.3692727 L87.0646077,14.2401818 L92.2318962,14.2401818 L92.9875115,22.1365455 C94.0621846,19.5374545 95.1793385,16.8656364 96.2476846,14.2401818 L101.890396,14.2401818 L94.1118962,30.3692727 L89.4833,30.3692727 Z" id="Fill-197" fill="#FFFFFF"></path>
                <polygon id="Fill-199" fill="#FFFFFF" points="107.645004 30.3692727 115.578965 14.2138182 120.549215 14.2138182 122.840465 30.3692727 117.583696 30.3692727 116.628331 22.5583636 113.473908 30.3692727"></polygon>
                <path d="M80.7908308,40.0115455 L82.5876769,39.8851818 C82.6265423,40.217 82.7042731,40.4679091 82.8244846,40.6442727 C83.0170038,40.9242727 83.2981,41.0633636 83.6605423,41.0633636 C83.9307923,41.0633636 84.1368692,40.9924545 84.2832923,40.8488182 C84.4251962,40.7042727 84.4984077,40.5379091 84.4984077,40.3479091 C84.4984077,40.1679091 84.4324269,40.007 84.2914269,39.8651818 C84.1531385,39.7233636 83.8295615,39.5879091 83.3252154,39.4624545 C82.4981962,39.2497273 81.9043692,38.9697273 81.5536769,38.6179091 C81.1930423,38.2688182 81.0176962,37.8215455 81.0176962,37.2779091 C81.0176962,36.9224545 81.1116962,36.5824545 81.2924654,36.2660909 C81.4741385,35.9488182 81.7480038,35.7006364 82.1131577,35.5160909 C82.4765038,35.3351818 82.9799462,35.2451818 83.61535,35.2451818 C84.3980808,35.2451818 84.9928115,35.4106364 85.4040615,35.7397273 C85.8153115,36.0688182 86.0575423,36.5951818 86.1370808,37.317 L84.3546962,37.4315455 C84.3104077,37.1215455 84.2082731,36.8924545 84.0564269,36.7506364 C83.9054846,36.6097273 83.6948885,36.5397273 83.4336769,36.5397273 C83.2068115,36.5397273 83.0450231,36.5906364 82.9329462,36.6960909 C82.8226769,36.8033636 82.7657346,36.9324545 82.7657346,37.0842727 C82.7657346,37.1933636 82.8118308,37.2933636 82.9067346,37.3824545 C82.9944077,37.4742727 83.2022923,37.557 83.5376192,37.6379091 C84.3637346,37.8388182 84.9539462,38.047 85.3118692,38.2515455 C85.6716,38.4588182 85.9273885,38.7142727 86.0900808,39.0215455 C86.2518692,39.3279091 86.3359269,39.6697273 86.3359269,40.0506364 C86.3359269,40.4942727 86.2274654,40.9051818 86.0087346,41.2824545 C85.7936192,41.6588182 85.4917346,41.9442727 85.1021769,42.137 C84.7135231,42.3324545 84.2209269,42.4279091 83.6298115,42.4279091 C82.5894846,42.4279091 81.8718308,42.2015455 81.4696192,41.7451818 C81.0656,41.2924545 80.84235,40.7133636 80.7908308,40.0115455 L80.7908308,40.0115455 Z M77.3806192,35.3633636 L79.2606192,35.3633636 L79.2606192,39.5042727 C79.2606192,39.917 79.2054846,40.3042727 79.0925038,40.6697273 C78.9786192,41.0324545 78.8032731,41.3551818 78.56285,41.6260909 C78.3224269,41.8988182 78.0702538,42.0906364 77.8072346,42.2015455 C77.4375615,42.3551818 76.9982923,42.4342727 76.4849077,42.4342727 C76.1884462,42.4342727 75.8621577,42.4106364 75.5096577,42.3624545 C75.1589654,42.3151818 74.8661192,42.2206364 74.6302154,42.0806364 C74.3970231,41.9397273 74.1755808,41.7397273 73.9794462,41.4788182 C73.7878308,41.2224545 73.6486385,40.9551818 73.5754269,40.6797273 C73.4624462,40.2379091 73.4046,39.847 73.4046,39.5042727 L73.4046,35.3633636 L75.2891192,35.3633636 L75.2891192,39.6042727 C75.2891192,39.9842727 75.3795038,40.2824545 75.5638885,40.4924545 C75.7473692,40.707 76.0049654,40.8115455 76.3357731,40.8115455 C76.65935,40.8115455 76.9160423,40.7079091 77.1004269,40.497 C77.2839077,40.287 77.3806192,39.9897273 77.3806192,39.6042727 L77.3806192,35.3633636 Z M66.6203308,35.3633636 L71.6827731,35.3633636 L71.6827731,36.847 L68.5129846,36.847 L68.5129846,37.9515455 L71.4531962,37.9515455 L71.4531962,39.3679091 L68.5129846,39.3679091 L68.5129846,40.7351818 L71.77135,40.7351818 L71.77135,42.3097273 L66.6203308,42.3097273 L66.6203308,35.3633636 Z M58.9132346,35.3633636 L60.6811577,35.3633636 L62.98235,39.2079091 L62.98235,35.3633636 L64.7629269,35.3633636 L64.7629269,42.3097273 L62.98235,42.3097273 L60.6911,38.497 L60.6911,42.3097273 L58.9132346,42.3097273 L58.9132346,35.3633636 Z M54.0207154,38.3251818 L54.4825808,38.3251818 C54.8468308,38.3251818 55.1017154,38.2524545 55.2490423,38.1088182 C55.3936577,37.967 55.4668692,37.7806364 55.4668692,37.557 C55.4668692,37.3397273 55.4017923,37.1542727 55.2761577,37.0042727 C55.1487154,36.8497273 54.9091962,36.7760909 54.5585038,36.7760909 L54.0207154,36.7760909 L54.0207154,38.3251818 Z M52.1199269,35.3633636 L55.2616962,35.3633636 C55.9441,35.3633636 56.4565808,35.5488182 56.7937154,35.9188182 C57.1389846,36.2879091 57.3098115,36.8124545 57.3098115,37.4933636 C57.3098115,38.1979091 57.1227154,38.7451818 56.7530423,39.1406364 C56.3806577,39.5351818 55.8130423,39.7315455 55.0520038,39.7315455 L54.0207154,39.7315455 L54.0207154,42.3097273 L52.1199269,42.3097273 L52.1199269,35.3633636 Z" id="Fill-201" fill="#231F1F"></path>
                <path d="M81.3283481,39.6244545 L83.1242904,39.4962727 C83.1658673,39.8271818 83.2435981,40.0799091 83.3638096,40.2535455 C83.5608481,40.5362727 83.837425,40.6744545 84.1980596,40.6744545 C84.4683096,40.6744545 84.671675,40.6026364 84.8190019,40.4599091 C84.9627135,40.3171818 85.0377327,40.149 85.0377327,39.959 C85.0377327,39.7817273 84.9726558,39.6171818 84.8316558,39.4753636 C84.6906558,39.3335455 84.3670788,39.199 83.8627327,39.0735455 C83.0357135,38.8617273 82.4445981,38.5826364 82.0930019,38.2308182 C81.7332712,37.8808182 81.557925,37.4317273 81.557925,36.8908182 C81.557925,36.5317273 81.6483096,36.1962727 81.8335981,35.8771818 C82.0116558,35.559 82.2882327,35.3117273 82.6533865,35.1280909 C83.0167327,34.9462727 83.5192712,34.8571818 84.1528673,34.8571818 C84.9355981,34.8571818 85.5339442,35.0217273 85.9415788,35.3508182 C86.351925,35.6817273 86.5968673,36.2062727 86.6773096,36.9262727 L84.894925,37.0453636 C84.847925,36.7326364 84.7457904,36.5035455 84.5966558,36.3617273 C84.4430019,36.2217273 84.2351173,36.1517273 83.9711942,36.1517273 C83.7461365,36.1517273 83.5825404,36.2017273 83.4704635,36.3080909 C83.3620019,36.4144545 83.3050596,36.5426364 83.3050596,36.6953636 C83.3050596,36.8044545 83.3475404,36.9035455 83.4397327,36.9926364 C83.531925,37.0862727 83.7443288,37.1680909 84.0778481,37.249 C84.9003481,37.4499091 85.4914635,37.6562727 85.8493865,37.8635455 C86.2082135,38.0708182 86.4721365,38.3253636 86.6321173,38.6326364 C86.7939058,38.9380909 86.8752519,39.2817273 86.8752519,39.6626364 C86.8752519,40.1071818 86.7667904,40.519 86.5480596,40.8935455 C86.3338481,41.2699091 86.0265404,41.5553636 85.6387904,41.749 C85.2501365,41.9444545 84.7602519,42.039 84.1673288,42.039 C83.1288096,42.039 82.4093481,41.8144545 82.0089442,41.3553636 C81.6085404,40.9026364 81.3825788,40.3253636 81.3283481,39.6244545 L81.3283481,39.6244545 Z M77.9136173,34.9744545 L79.7999442,34.9744545 L79.7999442,39.1162727 C79.7999442,39.529 79.7448096,39.9162727 79.6327327,40.2808182 C79.5179442,40.6444545 79.3398865,40.9644545 79.1012712,41.2371818 C78.8599442,41.5099091 78.608675,41.6999091 78.3447519,41.8144545 C77.9786942,41.9662727 77.5358096,42.0435455 77.022425,42.0435455 C76.7241558,42.0435455 76.4014827,42.0208182 76.047175,41.9726364 C75.6964827,41.9262727 75.4036365,41.8317273 75.1650212,41.6908182 C74.9300212,41.5499091 74.7176173,41.3508182 74.5187712,41.0917273 C74.3208288,40.8326364 74.1879635,40.5653636 74.1147519,40.2908182 C73.9981558,39.849 73.9385019,39.4580909 73.9385019,39.1162727 L73.9385019,34.9744545 L75.8266365,34.9744545 L75.8266365,39.2171818 C75.8266365,39.5953636 75.9188288,39.8917273 76.1032135,40.1044545 C76.2866942,40.3180909 76.5442904,40.4226364 76.8732904,40.4226364 C77.198675,40.4226364 77.4535596,40.3199091 77.6397519,40.1071818 C77.821425,39.9008182 77.9136173,39.6008182 77.9136173,39.2171818 L77.9136173,34.9744545 Z M67.1569442,34.9744545 L72.2220981,34.9744545 L72.2220981,36.4580909 L69.0523096,36.4580909 L69.0523096,37.5635455 L71.9907135,37.5635455 L71.9907135,38.9808182 L69.0523096,38.9808182 L69.0523096,40.3480909 L72.3115788,40.3480909 L72.3115788,41.9217273 L67.1569442,41.9217273 L67.1569442,34.9744545 Z M59.4534635,34.9744545 L61.218675,34.9744545 L63.521675,38.8171818 L63.521675,34.9744545 L65.2977327,34.9744545 L65.2977327,41.9217273 L63.521675,41.9217273 L61.2295212,38.1080909 L61.2295212,41.9217273 L59.4534635,41.9217273 L59.4534635,34.9744545 Z M54.5582327,37.9371818 L55.0200981,37.9371818 C55.3861558,37.9371818 55.637425,37.8635455 55.7865596,37.7217273 C55.9329827,37.5780909 56.0070981,37.3935455 56.0070981,37.1680909 C56.0070981,36.9517273 55.9420212,36.7644545 55.813675,36.6153636 C55.6862327,36.4608182 55.4467135,36.3862727 55.0978288,36.3862727 L54.5582327,36.3862727 L54.5582327,37.9371818 Z M52.6592519,34.9744545 L55.7992135,34.9744545 C56.4816173,34.9744545 56.9959058,35.1580909 57.3375596,35.5308182 C57.6746942,35.8980909 57.8473288,36.4253636 57.8473288,37.1053636 C57.8473288,37.809 57.6620404,38.3562727 57.2887519,38.7517273 C56.918175,39.1453636 56.3523673,39.3435455 55.5922327,39.3435455 L54.5582327,39.3435455 L54.5582327,41.9217273 L52.6592519,41.9217273 L52.6592519,34.9744545 Z" id="Fill-203" fill="#FFFFFF"></path>
                <mask id="mask-2" fill="white">
                    <use xlink:href="#path-1"></use>
                </mask>
                <g id="Clip-206"></g>
                <polygon id="Fill-205" fill="#231F1F" mask="url(#mask-2)" points="17.5020769 36.1190909 50.1761154 36.1190909 50.1761154 35.6481818 17.5020769 35.6481818"></polygon>
                <polygon id="Fill-207" fill="#231F1F" mask="url(#mask-2)" points="26.9129231 38.0118182 50.1761154 38.0118182 50.1761154 37.5409091 26.9129231 37.5409091"></polygon>
                <polygon id="Fill-208" fill="#231F1F" mask="url(#mask-2)" points="36.2894231 39.9418182 50.1761154 39.9418182 50.1761154 39.47 36.2894231 39.47"></polygon>
                <polygon id="Fill-209" fill="#231F1F" mask="url(#mask-2)" points="45.8475962 41.8363636 50.1761154 41.8363636 50.1761154 41.3636364 45.8475962 41.3636364"></polygon>
                <polygon id="Fill-210" fill="#FFFFFF" mask="url(#mask-2)" points="17.6873654 35.9763636 50.3586923 35.9763636 50.3586923 35.5045455 17.6873654 35.5045455"></polygon>
                <polygon id="Fill-211" fill="#FFFFFF" mask="url(#mask-2)" points="27.0964038 37.8690909 50.3586923 37.8690909 50.3586923 37.3972727 27.0964038 37.3972727"></polygon>
                <polygon id="Fill-212" fill="#FFFFFF" mask="url(#mask-2)" points="36.4710962 39.8 50.3586923 39.8 50.3586923 39.3272727 36.4710962 39.3272727"></polygon>
                <polygon id="Fill-213" fill="#FFFFFF" mask="url(#mask-2)" points="46.0283654 41.6936364 50.3605 41.6936364 50.3605 41.2218182 46.0283654 41.2218182"></polygon>
                <polygon id="Fill-214" fill="#231F1F" mask="url(#mask-2)" points="88.4006731 36.1190909 121.072 36.1190909 121.072 35.6481818 88.4006731 35.6481818"></polygon>
                <polygon id="Fill-215" fill="#231F1F" mask="url(#mask-2)" points="88.4006731 38.0118182 111.662962 38.0118182 111.662962 37.5409091 88.4006731 37.5409091"></polygon>
                <polygon id="Fill-216" fill="#231F1F" mask="url(#mask-2)" points="88.4006731 39.9418182 102.286462 39.9418182 102.286462 39.47 88.4006731 39.47"></polygon>
                <polygon id="Fill-217" fill="#231F1F" mask="url(#mask-2)" points="88.4006731 41.8363636 92.7282885 41.8363636 92.7282885 41.3636364 88.4006731 41.3636364"></polygon>
                <polygon id="Fill-218" fill="#FFFFFF" mask="url(#mask-2)" points="88.2171923 35.9763636 120.890327 35.9763636 120.890327 35.5045455 88.2171923 35.5045455"></polygon>
                <polygon id="Fill-219" fill="#FFFFFF" mask="url(#mask-2)" points="88.2171923 37.8690909 111.479481 37.8690909 111.479481 37.3972727 88.2171923 37.3972727"></polygon>
                <polygon id="Fill-220" fill="#FFFFFF" mask="url(#mask-2)" points="88.2171923 39.8 102.101173 39.8 102.101173 39.3272727 88.2171923 39.3272727"></polygon>
                <polygon id="Fill-221" fill="#FFFFFF" mask="url(#mask-2)" points="88.2153846 41.6936364 92.5484231 41.6936364 92.5484231 41.2218182 88.2153846 41.2218182"></polygon>
            </g>
        </g>
    </g>
</svg>